<svg id="Layer_1" data-name="Layer 1" xmlns="http://www.w3.org/2000/svg" xmlns:xlink="http://www.w3.org/1999/xlink" width="380.05" height="94.05" viewBox="0 0 380.05 94.05"><defs><style>.cls-1,.cls-15{fill:none;}.cls-2{fill:#1d1d1b;}.cls-3{fill:#de6b55;}.cls-4{fill:#222a32;}.cls-5{fill:#2f52a4;}.cls-6{opacity:0.21;}.cls-7{clip-path:url(#clip-path);}.cls-8{clip-path:url(#clip-path-2);}.cls-9{fill:#e74a58;}.cls-10{fill:#9ab898;}.cls-11,.cls-12{isolation:isolate;}.cls-12{font-size:14px;fill:#333;font-family:ArialMT, Arial;}.cls-13{fill:#ec803c;}.cls-14{fill:#fff;}.cls-15{stroke:#dfdfde;stroke-width:0.3px;}.cls-16{fill:#16783c;}</style><clipPath id="clip-path" transform="translate(-122.67 -97.42)"><path class="cls-1" d="M261.55,166.06h-2.4a4.13,4.13,0,0,1,.82,2h2l-.47,1.6H260a3.64,3.64,0,0,1-1.43,2.72,5.78,5.78,0,0,1-3.47.91l5,5.81v.12h-2.3L252.42,173v-1.27h2.53a3.63,3.63,0,0,0,2.06-.55,2.37,2.37,0,0,0,1-1.48h-5.88l.47-1.6H258q-.49-1.93-3-2h-2.85l.48-1.6H262Z"/></clipPath><clipPath id="clip-path-2" transform="translate(-122.67 -97.42)"><rect class="cls-1" x="53.44" y="59.28" width="533.11" height="610.43"/></clipPath></defs><title>gra-1</title><g id="Group_30584" data-name="Group 30584"><g id="Group_30504" data-name="Group 30504"><g id="Group_30502" data-name="Group 30502"><path id="Path_31110" data-name="Path 31110" class="cls-2" d="M193.41,160.93a.45.45,0,0,1-.39-.23l-4.51-7.82L184,160.7a.45.45,0,0,1-.78-.45l4.9-8.49a.47.47,0,0,1,.78,0l4.9,8.49a.45.45,0,0,1-.39.67Z" transform="translate(-122.67 -97.42)"/></g><g id="Group_30503" data-name="Group 30503"><path id="Path_31111" data-name="Path 31111" class="cls-2" d="M201.18,160.93a.45.45,0,0,1-.39-.23l-4.9-8.49a.45.45,0,1,1,.78-.45l4.51,7.82,4.51-7.82a.45.45,0,1,1,.78.45l-4.9,8.49A.45.45,0,0,1,201.18,160.93Z" transform="translate(-122.67 -97.42)"/></g></g><g id="Group_30508" data-name="Group 30508"><g id="Group_30505" data-name="Group 30505"><path id="Path_31112" data-name="Path 31112" class="cls-3" d="M194.81,144a2.83,2.83,0,0,1-2.82-2.82.45.45,0,1,1,.9,0,1.92,1.92,0,1,0,1.92-1.92,2.82,2.82,0,1,1,2.82-2.82h0a.45.45,0,1,1-.9,0,1.92,1.92,0,1,0-1.93,1.92,2.82,2.82,0,0,1,0,5.65h0Z" transform="translate(-122.67 -97.42)"/></g><g id="Group_30506" data-name="Group 30506"><path id="Path_31113" data-name="Path 31113" class="cls-3" d="M194.81,134.47a.45.45,0,0,1-.45-.45v-1.67a.45.45,0,1,1,.9,0V134A.45.45,0,0,1,194.81,134.47Z" transform="translate(-122.67 -97.42)"/></g><g id="Group_30507" data-name="Group 30507"><path id="Path_31114" data-name="Path 31114" class="cls-3" d="M194.81,145.64a.45.45,0,0,1-.45-.45v-1.67a.45.45,0,1,1,.9,0v1.67A.45.45,0,0,1,194.81,145.64Z" transform="translate(-122.67 -97.42)"/></g></g><g id="Group_30512" data-name="Group 30512"><g id="Group_30509" data-name="Group 30509"><path id="Path_31115" data-name="Path 31115" class="cls-3" d="M444.89,153.47a2.83,2.83,0,0,1-2.82-2.82.45.45,0,0,1,.9,0,1.92,1.92,0,1,0,1.92-1.92h0a2.82,2.82,0,1,1,2.82-2.82.45.45,0,0,1-.9,0,1.92,1.92,0,1,0-1.92,1.92,2.82,2.82,0,1,1,0,5.65h0Z" transform="translate(-122.67 -97.42)"/></g><g id="Group_30510" data-name="Group 30510"><path id="Path_31116" data-name="Path 31116" class="cls-3" d="M444.89,144a.45.45,0,0,1-.45-.45h0v-1.67a.45.45,0,0,1,.9,0v1.67a.45.45,0,0,1-.45.45h0Z" transform="translate(-122.67 -97.42)"/></g><g id="Group_30511" data-name="Group 30511"><path id="Path_31117" data-name="Path 31117" class="cls-3" d="M444.89,155.14a.45.45,0,0,1-.45-.45V153a.45.45,0,0,1,.9,0v1.67a.45.45,0,0,1-.45.45h0Z" transform="translate(-122.67 -97.42)"/></g></g><g id="Group_30516" data-name="Group 30516"><g id="Group_30513" data-name="Group 30513"><path id="Path_31118" data-name="Path 31118" class="cls-4" d="M339.59,160.73a4.24,4.24,0,0,1-4.23-4.23.45.45,0,1,1,.9,0h0a3.33,3.33,0,1,0,3.33-3.33,4.23,4.23,0,1,1,4.23-4.23h0a.45.45,0,1,1-.9,0,3.33,3.33,0,1,0-3.33,3.33,4.23,4.23,0,1,1,0,8.47h0Z" transform="translate(-122.67 -97.42)"/></g><g id="Group_30514" data-name="Group 30514"><path id="Path_31119" data-name="Path 31119" class="cls-4" d="M339.59,145.59a.45.45,0,0,1-.45-.45h0v-2.66a.45.45,0,1,1,.9,0h0v2.67A.45.45,0,0,1,339.59,145.59Z" transform="translate(-122.67 -97.42)"/></g><g id="Group_30515" data-name="Group 30515"><path id="Path_31120" data-name="Path 31120" class="cls-4" d="M339.59,163.39a.45.45,0,0,1-.45-.45h0v-2.66a.45.45,0,0,1,.9,0v2.66a.45.45,0,0,1-.45.45Z" transform="translate(-122.67 -97.42)"/></g></g><g id="Group_30520" data-name="Group 30520"><g id="Group_30517" data-name="Group 30517"><path id="Path_31121" data-name="Path 31121" class="cls-4" d="M460.48,168.81a8.09,8.09,0,1,1-.18-16.17h.18a.45.45,0,0,1,0,.9,7.19,7.19,0,1,0-.17,14.38h.17a.45.45,0,0,1,0,.9Z" transform="translate(-122.67 -97.42)"/></g><g id="Group_30518" data-name="Group 30518"><path id="Path_31122" data-name="Path 31122" class="cls-4" d="M460.48,159.86H450.23a.45.45,0,1,1,0-.9h10.25a.45.45,0,0,1,0,.9Z" transform="translate(-122.67 -97.42)"/></g><g id="Group_30519" data-name="Group 30519"><path id="Path_31123" data-name="Path 31123" class="cls-4" d="M460.48,162.5H450.23a.45.45,0,1,1,0-.9h10.25a.45.45,0,0,1,0,.9Z" transform="translate(-122.67 -97.42)"/></g></g><g id="Group_30526" data-name="Group 30526"><g id="Group_30521" data-name="Group 30521"><path id="Path_31124" data-name="Path 31124" class="cls-4" d="M238.49,147.94a.45.45,0,0,1-.45-.45h0v-9a.45.45,0,1,1,.9,0h0v9a.45.45,0,0,1-.45.45Z" transform="translate(-122.67 -97.42)"/></g><g id="Group_30522" data-name="Group 30522"><path id="Path_31125" data-name="Path 31125" class="cls-4" d="M238.49,138.93a.45.45,0,0,1-.32-.13l-5.66-5.66a.45.45,0,1,1,.64-.64h0l5.66,5.66a.45.45,0,0,1-.32.77Z" transform="translate(-122.67 -97.42)"/></g><g id="Group_30523" data-name="Group 30523"><path id="Path_31126" data-name="Path 31126" class="cls-4" d="M238.49,138.93a.45.45,0,0,1-.32-.77l5.66-5.66a.45.45,0,0,1,.64.64l-5.66,5.66a.45.45,0,0,1-.32.13Z" transform="translate(-122.67 -97.42)"/></g><g id="Group_30524" data-name="Group 30524"><path id="Path_31127" data-name="Path 31127" class="cls-4" d="M242.33,141.3h-7.68a.45.45,0,0,1,0-.9h7.68a.45.45,0,0,1,0,.9Z" transform="translate(-122.67 -97.42)"/></g><g id="Group_30525" data-name="Group 30525"><path id="Path_31128" data-name="Path 31128" class="cls-4" d="M242.33,144.6h-7.68a.45.45,0,0,1,0-.9h7.68a.45.45,0,0,1,0,.9Z" transform="translate(-122.67 -97.42)"/></g></g><g id="Group_30530" data-name="Group 30530"><g id="Group_30527" data-name="Group 30527"><path id="Path_31129" data-name="Path 31129" class="cls-4" d="M128.53,174.92h-5.41a.45.45,0,0,1,0-.9h5.41a.45.45,0,0,1,0,.9Z" transform="translate(-122.67 -97.42)"/></g><g id="Group_30528" data-name="Group 30528"><path id="Path_31130" data-name="Path 31130" class="cls-4" d="M128.53,177.24h-5.41a.45.45,0,0,1,0-.9h5.41a.45.45,0,0,1,0,.9Z" transform="translate(-122.67 -97.42)"/></g><g id="Group_30529" data-name="Group 30529"><path id="Path_31131" data-name="Path 31131" class="cls-4" d="M131,180h-6.87a.45.45,0,0,1-.42-.61l1.2-3.06v-3.05a3.27,3.27,0,0,1,6.54,0,.45.45,0,0,1-.9,0,2.37,2.37,0,1,0-4.74,0v3.14a.45.45,0,0,1,0,.17l-1,2.52H131a.45.45,0,0,1,0,.9Z" transform="translate(-122.67 -97.42)"/></g></g><g id="Group_30534" data-name="Group 30534"><g id="Group_30531" data-name="Group 30531"><path id="Path_31132" data-name="Path 31132" class="cls-2" d="M169.28,121.4h-.1l-.43-.09a.45.45,0,0,1,.16-.88h0l.45.09a.45.45,0,0,1-.09.89Z" transform="translate(-122.67 -97.42)"/></g><g id="Group_30532" data-name="Group 30532"><path id="Path_31133" data-name="Path 31133" class="cls-2" d="M182.46,129.14a.45.45,0,0,1-.34-.15l-.57-.63a.45.45,0,0,1,.65-.62l.59.65a.45.45,0,0,1-.34.75Zm-1.82-1.85a.45.45,0,0,1-.3-.12l-.64-.56a.45.45,0,0,1,.58-.68l.66.58a.45.45,0,0,1-.3.78Zm-2-1.64a.45.45,0,0,1-.27-.09l-.69-.49a.45.45,0,1,1,.51-.74h0l.72.51a.45.45,0,0,1-.27.81Zm-2.16-1.43a.45.45,0,0,1-.23-.06l-.74-.42a.45.45,0,1,1,.43-.79l.77.43a.45.45,0,0,1-.23.84Zm-2.3-1.19a.44.44,0,0,1-.19,0l-.78-.34a.45.45,0,0,1,.34-.83l.81.35a.45.45,0,0,1-.19.86Zm-2.41-.94-.14,0-.81-.25a.45.45,0,1,1,.25-.86h0l.84.26a.45.45,0,0,1-.14.88Z" transform="translate(-122.67 -97.42)"/></g><g id="Group_30533" data-name="Group 30533"><path id="Path_31134" data-name="Path 31134" class="cls-2" d="M183.83,130.83a.45.45,0,0,1-.36-.18l-.26-.35a.45.45,0,1,1,.71-.55h0l.27.36a.45.45,0,0,1-.36.72Z" transform="translate(-122.67 -97.42)"/></g></g><g id="Group_30538" data-name="Group 30538"><g id="Group_30535" data-name="Group 30535"><path id="Path_31135" data-name="Path 31135" class="cls-2" d="M348.72,138.68a.46.46,0,0,1-.21-.05.45.45,0,0,1-.18-.61l.22-.4a.45.45,0,0,1,.8.41l0,0-.21.39A.45.45,0,0,1,348.72,138.68Z" transform="translate(-122.67 -97.42)"/></g><g id="Group_30536" data-name="Group 30536"><path id="Path_31136" data-name="Path 31136" class="cls-2" d="M349.9,136.7a.45.45,0,0,1-.37-.7c.17-.26.36-.52.54-.78a.45.45,0,0,1,.74.5l0,0c-.18.25-.35.5-.52.75a.45.45,0,0,1-.37.2Zm1.67-2.23a.45.45,0,0,1-.34-.74c.2-.24.41-.48.62-.71a.45.45,0,1,1,.71.55l0,0-.6.69a.45.45,0,0,1-.34.17Zm1.91-2a.45.45,0,0,1-.31-.77l.7-.64a.45.45,0,1,1,.59.68l-.67.61a.44.44,0,0,1-.31.13Zm2.13-1.8a.45.45,0,0,1-.27-.81l.77-.55a.45.45,0,0,1,.51.74h0l-.74.53a.45.45,0,0,1-.27.09Zm2.31-1.55a.45.45,0,0,1-.23-.84l.82-.46a.45.45,0,0,1,.43.79h0l-.79.45a.45.45,0,0,1-.23.06Zm2.48-1.27a.45.45,0,0,1-.18-.86l.87-.37a.45.45,0,1,1,.33.83l-.84.35a.44.44,0,0,1-.18,0Zm2.6-1a.45.45,0,0,1-.13-.88l.9-.27a.45.45,0,0,1,.55.32.45.45,0,0,1-.31.55h0l-.87.26-.13,0Z" transform="translate(-122.67 -97.42)"/></g><g id="Group_30537" data-name="Group 30537"><path id="Path_31137" data-name="Path 31137" class="cls-2" d="M365.72,126.15a.45.45,0,0,1-.08-.89l.45-.08a.45.45,0,1,1,.19.88h0l-.43.08h-.09Z" transform="translate(-122.67 -97.42)"/></g></g><g id="Group_30539" data-name="Group 30539"><path id="Path_31138" data-name="Path 31138" class="cls-3" d="M381.24,125.94l1.25-.64a5.3,5.3,0,0,0-.12-.66l-1.4-.14a4.13,4.13,0,0,0-.22-.47,4.18,4.18,0,0,0-.28-.44l.64-1.26a5.17,5.17,0,0,0-.49-.46l-1.22.7a4,4,0,0,0-.94-.45l-.22-1.39a5.22,5.22,0,0,0-.67-.09l-.57,1.29a4,4,0,0,0-1,.19l-1-1-.3.15-.29.17.3,1.38a4,4,0,0,0-.72.75l-1.39-.22a5.31,5.31,0,0,0-.29.61l1,.94a4,4,0,0,0-.14,1l-1.25.64a5.3,5.3,0,0,0,.12.66l1.4.14a3.86,3.86,0,0,0,.5.91l-.64,1.26a5.41,5.41,0,0,0,.49.46l1.22-.71a4,4,0,0,0,.94.45l.22,1.39a5.22,5.22,0,0,0,.67.09l.57-1.29a4,4,0,0,0,1-.19l1,1,.3-.15.29-.17-.3-1.36a4,4,0,0,0,.72-.75l1.39.22a5.31,5.31,0,0,0,.29-.61l-1-.94a4,4,0,0,0,.14-1Zm-4,2.23a2.23,2.23,0,1,1,2.23-2.23h0a2.23,2.23,0,0,1-2.23,2.23Z" transform="translate(-122.67 -97.42)"/></g><g id="Group_30540" data-name="Group 30540"><path id="Path_31139" data-name="Path 31139" class="cls-5" d="M458.74,136.78l1.25-.64a5.43,5.43,0,0,0-.12-.66l-1.4-.15a4.2,4.2,0,0,0-.22-.47,4,4,0,0,0-.28-.44l.64-1.25a5.28,5.28,0,0,0-.49-.46l-1.22.7A4,4,0,0,0,456,133l-.22-1.39a5.36,5.36,0,0,0-.67-.09l-.57,1.29a4,4,0,0,0-1,.19l-1-1-.3.15-.29.17.29,1.38a4,4,0,0,0-.71.75l-1.39-.22a5.31,5.31,0,0,0-.29.61l1,.94a4,4,0,0,0-.14,1l-1.25.64a5.11,5.11,0,0,0,.12.66l1.4.15a4.13,4.13,0,0,0,.22.47,4,4,0,0,0,.28.44l-.64,1.25a5.28,5.28,0,0,0,.49.46l1.22-.7a4,4,0,0,0,.94.45l.22,1.39a5.35,5.35,0,0,0,.67.09l.57-1.29a4,4,0,0,0,1-.19l1,1,.3-.15.29-.17-.3-1.37a4,4,0,0,0,.72-.75l1.39.22a5.33,5.33,0,0,0,.29-.61l-1-.94a4,4,0,0,0,.14-1Zm-4,2.23a2.23,2.23,0,1,1,2.23-2.23h0a2.23,2.23,0,0,1-2.23,2.23Z" transform="translate(-122.67 -97.42)"/></g><g id="Group_30543" data-name="Group 30543"><g id="Group_30541" data-name="Group 30541"><path id="Path_31140" data-name="Path 31140" class="cls-4" d="M340.63,137.6h-2.08a.45.45,0,0,1,0-.9h2.08a.45.45,0,0,1,0,.9Z" transform="translate(-122.67 -97.42)"/></g><g id="Group_30542" data-name="Group 30542"><path id="Path_31141" data-name="Path 31141" class="cls-4" d="M339.59,138.64a.45.45,0,0,1-.45-.45v-2.08a.45.45,0,0,1,.9,0v2.08a.45.45,0,0,1-.45.45Z" transform="translate(-122.67 -97.42)"/></g></g><g id="Group_30546" data-name="Group 30546"><g id="Group_30544" data-name="Group 30544"><path id="Path_31142" data-name="Path 31142" class="cls-4" d="M288.08,181.82H286a.45.45,0,0,1,0-.9h2.08a.45.45,0,0,1,0,.9Z" transform="translate(-122.67 -97.42)"/></g><g id="Group_30545" data-name="Group 30545"><path id="Path_31143" data-name="Path 31143" class="cls-4" d="M287,182.86a.45.45,0,0,1-.45-.45v-2.08a.45.45,0,0,1,.9,0v2.08a.45.45,0,0,1-.45.45Z" transform="translate(-122.67 -97.42)"/></g></g><g id="Group_30549" data-name="Group 30549"><g id="Group_30547" data-name="Group 30547"><path id="Path_31144" data-name="Path 31144" class="cls-4" d="M204.42,140.61h-2.08a.45.45,0,0,1,0-.9h2.08a.45.45,0,1,1,0,.9Z" transform="translate(-122.67 -97.42)"/></g><g id="Group_30548" data-name="Group 30548"><path id="Path_31145" data-name="Path 31145" class="cls-4" d="M203.38,141.65a.45.45,0,0,1-.45-.45h0v-2.08a.45.45,0,1,1,.9,0v2.08a.45.45,0,0,1-.45.45Z" transform="translate(-122.67 -97.42)"/></g></g><g id="Group_30552" data-name="Group 30552"><g id="Group_30550" data-name="Group 30550"><path id="Path_31146" data-name="Path 31146" class="cls-4" d="M496.37,171.75h-2.08a.45.45,0,1,1,0-.9h2.08a.45.45,0,0,1,0,.9Z" transform="translate(-122.67 -97.42)"/></g><g id="Group_30551" data-name="Group 30551"><path id="Path_31147" data-name="Path 31147" class="cls-4" d="M495.33,172.79a.45.45,0,0,1-.45-.45h0v-2.08a.45.45,0,1,1,.9,0h0v2.08a.45.45,0,0,1-.45.45Z" transform="translate(-122.67 -97.42)"/></g></g><g id="Group_30555" data-name="Group 30555"><g id="Group_30553" data-name="Group 30553"><path id="Path_31148" data-name="Path 31148" class="cls-4" d="M352.46,162.79h-2.08a.45.45,0,0,1,0-.9h2.08a.45.45,0,0,1,0,.9Z" transform="translate(-122.67 -97.42)"/></g><g id="Group_30554" data-name="Group 30554"><path id="Path_31149" data-name="Path 31149" class="cls-4" d="M351.42,163.83a.45.45,0,0,1-.45-.45h0v-2.08a.45.45,0,0,1,.9,0v2.08a.45.45,0,0,1-.45.45h0Z" transform="translate(-122.67 -97.42)"/></g></g><g id="Group_30558" data-name="Group 30558"><g id="Group_30556" data-name="Group 30556"><path id="Path_31150" data-name="Path 31150" class="cls-4" d="M183.3,171h-2.08a.45.45,0,1,1,0-.9h2.08a.45.45,0,0,1,0,.9Z" transform="translate(-122.67 -97.42)"/></g><g id="Group_30557" data-name="Group 30557"><path id="Path_31151" data-name="Path 31151" class="cls-4" d="M182.26,172a.45.45,0,0,1-.45-.45h0v-2.08a.45.45,0,1,1,.9,0v2.08a.45.45,0,0,1-.45.45Z" transform="translate(-122.67 -97.42)"/></g></g><g id="Group_30561" data-name="Group 30561"><g id="Group_30559" data-name="Group 30559"><path id="Path_31152" data-name="Path 31152" class="cls-4" d="M137.25,138.49h-2.08a.45.45,0,0,1,0-.9h2.08a.45.45,0,0,1,0,.9Z" transform="translate(-122.67 -97.42)"/></g><g id="Group_30560" data-name="Group 30560"><path id="Path_31153" data-name="Path 31153" class="cls-4" d="M136.21,139.54a.45.45,0,0,1-.45-.45V137a.45.45,0,1,1,.9,0h0v2.08A.45.45,0,0,1,136.21,139.54Z" transform="translate(-122.67 -97.42)"/></g></g><g id="Group_30564" data-name="Group 30564"><g id="Group_30562" data-name="Group 30562"><path id="Path_31154" data-name="Path 31154" class="cls-4" d="M171.49,132.38h-2.08a.45.45,0,0,1,0-.9h2.08a.45.45,0,0,1,0,.9Z" transform="translate(-122.67 -97.42)"/></g><g id="Group_30563" data-name="Group 30563"><path id="Path_31155" data-name="Path 31155" class="cls-4" d="M170.45,133.42A.45.45,0,0,1,170,133v-2.08a.45.45,0,0,1,.9,0V133a.45.45,0,0,1-.45.45Z" transform="translate(-122.67 -97.42)"/></g></g><g id="Group_30567" data-name="Group 30567"><g id="Group_30565" data-name="Group 30565"><path id="Path_31156" data-name="Path 31156" class="cls-4" d="M209.18,162.05H207.1a.45.45,0,1,1,0-.9h2.08a.45.45,0,0,1,0,.9Z" transform="translate(-122.67 -97.42)"/></g><g id="Group_30566" data-name="Group 30566"><path id="Path_31157" data-name="Path 31157" class="cls-4" d="M208.14,163.09a.45.45,0,0,1-.45-.45h0v-2.08a.45.45,0,1,1,.9,0v2.08a.45.45,0,0,1-.45.45Z" transform="translate(-122.67 -97.42)"/></g></g><g id="Group_30570" data-name="Group 30570"><g id="Group_30568" data-name="Group 30568"><path id="Path_31158" data-name="Path 31158" class="cls-4" d="M275.45,151.18h-2.08a.45.45,0,0,1,0-.9h2.08a.45.45,0,0,1,0,.9Z" transform="translate(-122.67 -97.42)"/></g><g id="Group_30569" data-name="Group 30569"><path id="Path_31159" data-name="Path 31159" class="cls-4" d="M274.41,152.22a.45.45,0,0,1-.45-.45h0v-2.08a.45.45,0,0,1,.9,0v2.08a.45.45,0,0,1-.45.45Z" transform="translate(-122.67 -97.42)"/></g></g><g id="Group_30573" data-name="Group 30573"><g id="Group_30571" data-name="Group 30571"><path id="Path_31160" data-name="Path 31160" class="cls-4" d="M407.77,152.27h-2.08a.45.45,0,0,1,0-.9h2.08a.45.45,0,0,1,0,.9Z" transform="translate(-122.67 -97.42)"/></g><g id="Group_30572" data-name="Group 30572"><path id="Path_31161" data-name="Path 31161" class="cls-4" d="M406.73,153.32a.45.45,0,0,1-.45-.45h0v-2.08a.45.45,0,1,1,.9,0h0v2.08a.45.45,0,0,1-.45.45Z" transform="translate(-122.67 -97.42)"/></g></g><g id="Group_30576" data-name="Group 30576"><g id="Group_30574" data-name="Group 30574"><path id="Path_31162" data-name="Path 31162" class="cls-4" d="M438.76,146.74h-2.08a.45.45,0,1,1,0-.9h2.08a.45.45,0,1,1,0,.9Z" transform="translate(-122.67 -97.42)"/></g><g id="Group_30575" data-name="Group 30575"><path id="Path_31163" data-name="Path 31163" class="cls-4" d="M437.72,147.78a.45.45,0,0,1-.45-.45h0v-2.08a.45.45,0,0,1,.9,0v2.08a.45.45,0,0,1-.45.45Z" transform="translate(-122.67 -97.42)"/></g></g><g id="Group_30579" data-name="Group 30579"><g id="Group_30577" data-name="Group 30577"><path id="Path_31164" data-name="Path 31164" class="cls-4" d="M455,174.39h-2.08a.45.45,0,1,1,0-.9H455a.45.45,0,1,1,0,.9Z" transform="translate(-122.67 -97.42)"/></g><g id="Group_30578" data-name="Group 30578"><path id="Path_31165" data-name="Path 31165" class="cls-4" d="M454,175.43a.45.45,0,0,1-.45-.45h0V172.9a.45.45,0,1,1,.9,0h0V175a.45.45,0,0,1-.45.45Z" transform="translate(-122.67 -97.42)"/></g></g><g id="Group_30580" data-name="Group 30580"><path id="Path_31166" data-name="Path 31166" class="cls-2" d="M410.63,138.39a.45.45,0,0,1-.32-.13L409.07,137l-1.24,1.24a.46.46,0,0,1-.64,0L405.94,137l-1.24,1.24a.45.45,0,0,1-.63,0L402.82,137l-1.24,1.24a.45.45,0,0,1-.63,0L399.7,137l-1.24,1.24a.45.45,0,0,1-.64,0l-1.56-1.56a.45.45,0,0,1,.64-.64h0l1.24,1.24,1.24-1.24a.45.45,0,0,1,.63,0l1.24,1.24,1.24-1.24a.45.45,0,0,1,.63,0l1.24,1.24,1.24-1.24a.45.45,0,0,1,.64,0l1.24,1.24,1.24-1.24a.46.46,0,0,1,.64,0l1.24,1.24,1.24-1.24a.45.45,0,0,1,.63,0l1.24,1.24,1.24-1.24a.45.45,0,0,1,.64,0l1.24,1.24,1.24-1.24a.45.45,0,0,1,.64.64h0l-1.56,1.56a.46.46,0,0,1-.64,0L415.31,137l-1.24,1.24a.45.45,0,0,1-.63,0L412.19,137l-1.24,1.24a.45.45,0,0,1-.31.13Z" transform="translate(-122.67 -97.42)"/></g><g id="Group_30581" data-name="Group 30581"><path id="Path_31167" data-name="Path 31167" class="cls-4" d="M187.22,141.39a.45.45,0,0,1-.32-.13L185.66,140l-1.24,1.24a.45.45,0,0,1-.64,0L182.54,140l-1.25,1.24a.45.45,0,0,1-.64,0L179.41,140l-1.24,1.24a.45.45,0,0,1-.64,0L176.29,140,175,141.26a.45.45,0,0,1-.64,0L173.17,140l-1.24,1.24a.45.45,0,0,1-.64,0l-1.56-1.56a.45.45,0,0,1,.64-.64l1.24,1.24,1.24-1.24a.45.45,0,0,1,.64,0l1.24,1.24,1.24-1.24a.45.45,0,0,1,.64,0l1.24,1.24,1.24-1.24a.45.45,0,0,1,.64,0L181,140.3l1.24-1.24a.45.45,0,0,1,.64,0l1.24,1.24,1.24-1.24a.45.45,0,0,1,.64,0l1.56,1.56a.45.45,0,0,1-.32.77Z" transform="translate(-122.67 -97.42)"/></g><g id="Group_30582" data-name="Group 30582"><path id="Path_31168" data-name="Path 31168" class="cls-2" d="M421,132.78h-.74a.45.45,0,0,1,0-.9H421a.45.45,0,0,1,0,.9Zm-2.54,0h-.9a.45.45,0,0,1,0-.9h.9a.45.45,0,1,1,0,.9Zm-2.7,0h-.9a.45.45,0,0,1,0-.9h.9a.45.45,0,1,1,0,.9Zm-2.7,0h-.9a.45.45,0,1,1,0-.9h.9a.45.45,0,1,1,0,.9Zm-2.7,0h-.9a.45.45,0,1,1,0-.9h.9a.45.45,0,1,1,0,.9Zm-2.7,0h-.9a.45.45,0,0,1,0-.9h.9a.45.45,0,1,1,0,.9Zm-2.7,0h-.9a.45.45,0,0,1,0-.9h.9a.45.45,0,1,1,0,.9Zm-2.7,0h-.9a.45.45,0,0,1,0-.9h.9a.45.45,0,1,1,0,.9Zm-2.7,0h-.9a.45.45,0,0,1,0-.9h.9a.45.45,0,1,1,0,.9Zm-2.7,0H396a.45.45,0,0,1,0-.9h.9a.45.45,0,1,1,0,.9Zm-2.7,0h-.9a.45.45,0,0,1,0-.9h.9a.45.45,0,1,1,0,.9Zm-2.7,0h-.9a.45.45,0,0,1,0-.9h.9a.45.45,0,1,1,0,.9Zm-2.7,0h-.9a.45.45,0,0,1,0-.9h.9a.45.45,0,1,1,0,.9Z" transform="translate(-122.67 -97.42)"/></g><g id="Group_30583" data-name="Group 30583"><path id="Path_31169" data-name="Path 31169" class="cls-2" d="M437.32,128.6h-.48a.45.45,0,1,1,0-.9h.48a.45.45,0,0,1,0,.9Zm-2.28,0h-.9a.45.45,0,0,1,0-.9h.9a.45.45,0,0,1,0,.9Zm-2.7,0h-.9a.45.45,0,0,1,0-.9h.9a.45.45,0,0,1,0,.9Zm-2.7,0h-.9a.45.45,0,1,1,0-.9h.9a.45.45,0,1,1,0,.9Zm-2.7,0H426a.45.45,0,0,1,0-.9h.9a.45.45,0,0,1,0,.9Zm-2.7,0h-.9a.45.45,0,0,1,0-.9h.9a.45.45,0,0,1,0,.9Zm-2.7,0h-.9a.45.45,0,1,1,0-.9h.9a.45.45,0,1,1,0,.9Zm-2.7,0h-.9a.45.45,0,0,1,0-.9h.9a.45.45,0,1,1,0,.9Zm-2.7,0h-.9a.45.45,0,0,1,0-.9h.9a.45.45,0,0,1,0,.9Zm-2.7,0h-.9a.45.45,0,1,1,0-.9h.9a.45.45,0,1,1,0,.9Zm-2.7,0h-.9a.45.45,0,0,1,0-.9h.9a.45.45,0,1,1,0,.9Zm-2.7,0h-.9a.45.45,0,0,1,0-.9h.9a.45.45,0,0,1,0,.9Zm-2.7,0h-.9a.45.45,0,1,1,0-.9h.9a.45.45,0,1,1,0,.9Z" transform="translate(-122.67 -97.42)"/></g></g><g id="Group_30633" data-name="Group 30633"><g id="Group_30585" data-name="Group 30585"><path id="Rectangle_11928" data-name="Rectangle 11928" class="cls-3" d="M393.48,152.8H398v34.34h-4.56Z" transform="translate(-122.67 -97.42)"/></g><g id="Group_30586" data-name="Group 30586"><path id="Rectangle_11929" data-name="Rectangle 11929" class="cls-3" d="M388.92,144.87H398v7.93h-9.12Z" transform="translate(-122.67 -97.42)"/></g><g id="Group_30587" data-name="Group 30587"><path id="Rectangle_11930" data-name="Rectangle 11930" class="cls-5" d="M355.52,150.8h3.72v33.5h-3.72Z" transform="translate(-122.67 -97.42)"/></g><g id="Group_30588" data-name="Group 30588"><path id="Rectangle_11931" data-name="Rectangle 11931" class="cls-5" d="M382.75,158.65H387v30h-4.28Z" transform="translate(-122.67 -97.42)"/></g><g id="Group_30589" data-name="Group 30589"><path id="Rectangle_11932" data-name="Rectangle 11932" class="cls-3" d="M366.65,142.4h6.55v44.91h-6.55Z" transform="translate(-122.67 -97.42)"/></g><g id="Group_30632" data-name="Group 30632"><g id="Group_30590" data-name="Group 30590"><path id="Path_31170" data-name="Path 31170" class="cls-2" d="M361.32,191h-12a.45.45,0,0,1-.45-.45h0V153a.45.45,0,0,1,.09-.27l4.33-5.6a.45.45,0,0,1,.36-.17h7.62a.45.45,0,0,1,.45.45h0v43.2a.45.45,0,0,1-.45.45h0Zm-11.5-.9h11.05v-42.3h-7l-4.1,5.31Z" transform="translate(-122.67 -97.42)"/></g><g id="Group_30591" data-name="Group 30591"><path id="Path_31171" data-name="Path 31171" class="cls-2" d="M353.7,191a.45.45,0,0,1-.45-.45h0v-43.2a.45.45,0,0,1,.9,0v43.2a.45.45,0,0,1-.45.45Z" transform="translate(-122.67 -97.42)"/></g><g id="Group_30592" data-name="Group 30592"><path id="Path_31172" data-name="Path 31172" class="cls-2" d="M375.69,191H364.17a.45.45,0,0,1,0-.9h11.08V139.59H364.39l-4.1,5.31v.87a.45.45,0,0,1-.9,0v-1a.45.45,0,0,1,.09-.27l4.33-5.6a.45.45,0,0,1,.36-.17h11.53a.45.45,0,0,1,.45.45v51.43a.45.45,0,0,1-.44.45Z" transform="translate(-122.67 -97.42)"/></g><g id="Group_30593" data-name="Group 30593"><path id="Path_31173" data-name="Path 31173" class="cls-2" d="M364.17,191a.45.45,0,0,1-.45-.45h0V139.14a.45.45,0,0,1,.9,0v51.43a.45.45,0,0,1-.45.45h0Z" transform="translate(-122.67 -97.42)"/></g><g id="Group_30594" data-name="Group 30594"><path id="Path_31174" data-name="Path 31174" class="cls-2" d="M389.8,191H375.69a.45.45,0,1,1,0-.9h13.66V156.29h-8.92l-4.4,5a.45.45,0,1,1-.67-.6h0l4.53-5.13a.45.45,0,0,1,.34-.15h9.58a.45.45,0,0,1,.45.45h0v34.74a.45.45,0,0,1-.44.45Z" transform="translate(-122.67 -97.42)"/></g><g id="Group_30595" data-name="Group 30595"><path id="Path_31175" data-name="Path 31175" class="cls-2" d="M380.22,191a.45.45,0,0,1-.45-.45h0V155.84a.45.45,0,0,1,.9,0v34.73a.45.45,0,0,1-.45.45h0Z" transform="translate(-122.67 -97.42)"/></g><g id="Group_30596" data-name="Group 30596"><path id="Path_31176" data-name="Path 31176" class="cls-2" d="M386.51,154.19a.45.45,0,0,1-.45-.45h0V142.29a.45.45,0,0,1,.9,0v11.46a.45.45,0,0,1-.45.45Z" transform="translate(-122.67 -97.42)"/></g><g id="Group_30597" data-name="Group 30597"><path id="Path_31177" data-name="Path 31177" class="cls-2" d="M400.63,191H392a.45.45,0,0,1,0-.9h8.23V142.74H386.74l-4.1,5.31v5.7a.45.45,0,0,1-.9,0v-5.85a.45.45,0,0,1,.09-.27l4.32-5.6a.45.45,0,0,1,.36-.17h14.11a.45.45,0,0,1,.45.45v48.28A.45.45,0,0,1,400.63,191Z" transform="translate(-122.67 -97.42)"/></g><g id="Group_30598" data-name="Group 30598"><path id="Path_31178" data-name="Path 31178" class="cls-2" d="M366.65,187.76a.45.45,0,0,1-.45-.45h0V142.4a.45.45,0,0,1,.9,0v44.91a.45.45,0,0,1-.45.45Z" transform="translate(-122.67 -97.42)"/></g><g id="Group_30599" data-name="Group 30599"><path id="Path_31179" data-name="Path 31179" class="cls-2" d="M369.93,187.76a.45.45,0,0,1-.45-.45h0V142.4a.45.45,0,0,1,.9,0v44.91A.45.45,0,0,1,369.93,187.76Z" transform="translate(-122.67 -97.42)"/></g><g id="Group_30600" data-name="Group 30600"><path id="Path_31180" data-name="Path 31180" class="cls-2" d="M373.21,187.76a.45.45,0,0,1-.45-.45h0V142.4a.45.45,0,0,1,.9,0v44.91A.45.45,0,0,1,373.21,187.76Z" transform="translate(-122.67 -97.42)"/></g><g id="Group_30601" data-name="Group 30601"><path id="Path_31181" data-name="Path 31181" class="cls-2" d="M391,145.32h-2.08a.45.45,0,0,1,0-.9H391a.45.45,0,1,1,0,.9Z" transform="translate(-122.67 -97.42)"/></g><g id="Group_30602" data-name="Group 30602"><path id="Path_31182" data-name="Path 31182" class="cls-2" d="M398,145.32H396a.45.45,0,0,1,0-.9H398a.45.45,0,0,1,0,.9Z" transform="translate(-122.67 -97.42)"/></g><g id="Group_30603" data-name="Group 30603"><path id="Path_31183" data-name="Path 31183" class="cls-2" d="M391,148h-2.08a.45.45,0,0,1,0-.9H391a.45.45,0,1,1,0,.9Z" transform="translate(-122.67 -97.42)"/></g><g id="Group_30604" data-name="Group 30604"><path id="Path_31184" data-name="Path 31184" class="cls-2" d="M398,148H396a.45.45,0,0,1,0-.9H398a.45.45,0,0,1,0,.9Z" transform="translate(-122.67 -97.42)"/></g><g id="Group_30605" data-name="Group 30605"><path id="Path_31185" data-name="Path 31185" class="cls-2" d="M391,150.6h-2.08a.45.45,0,0,1,0-.9H391a.45.45,0,1,1,0,.9Z" transform="translate(-122.67 -97.42)"/></g><g id="Group_30606" data-name="Group 30606"><path id="Path_31186" data-name="Path 31186" class="cls-2" d="M398,150.6H396a.45.45,0,0,1,0-.9H398a.45.45,0,0,1,0,.9Z" transform="translate(-122.67 -97.42)"/></g><g id="Group_30607" data-name="Group 30607"><path id="Path_31187" data-name="Path 31187" class="cls-2" d="M391,153.25h-2.08a.45.45,0,1,1,0-.9H391a.45.45,0,0,1,0,.9Z" transform="translate(-122.67 -97.42)"/></g><g id="Group_30608" data-name="Group 30608"><path id="Path_31188" data-name="Path 31188" class="cls-2" d="M398,153.25H396a.45.45,0,1,1,0-.9H398a.45.45,0,0,1,0,.9Z" transform="translate(-122.67 -97.42)"/></g><g id="Group_30609" data-name="Group 30609"><path id="Path_31189" data-name="Path 31189" class="cls-2" d="M398,155.89H396a.45.45,0,1,1,0-.9H398a.45.45,0,0,1,0,.9Z" transform="translate(-122.67 -97.42)"/></g><g id="Group_30610" data-name="Group 30610"><path id="Path_31190" data-name="Path 31190" class="cls-2" d="M398,158.53H396a.45.45,0,1,1,0-.9H398a.45.45,0,0,1,0,.9Z" transform="translate(-122.67 -97.42)"/></g><g id="Group_30611" data-name="Group 30611"><path id="Path_31191" data-name="Path 31191" class="cls-2" d="M398,161.18H396a.45.45,0,1,1,0-.9H398a.45.45,0,0,1,0,.9Z" transform="translate(-122.67 -97.42)"/></g><g id="Group_30612" data-name="Group 30612"><path id="Path_31192" data-name="Path 31192" class="cls-2" d="M398,163.82H396a.45.45,0,1,1,0-.9H398a.45.45,0,0,1,0,.9Z" transform="translate(-122.67 -97.42)"/></g><g id="Group_30613" data-name="Group 30613"><path id="Path_31193" data-name="Path 31193" class="cls-2" d="M398,166.46H396a.45.45,0,1,1,0-.9H398a.45.45,0,0,1,0,.9Z" transform="translate(-122.67 -97.42)"/></g><g id="Group_30614" data-name="Group 30614"><path id="Path_31194" data-name="Path 31194" class="cls-2" d="M398,169.11H396a.45.45,0,0,1,0-.9H398a.45.45,0,0,1,0,.9Z" transform="translate(-122.67 -97.42)"/></g><g id="Group_30615" data-name="Group 30615"><path id="Path_31195" data-name="Path 31195" class="cls-2" d="M398,171.75H396a.45.45,0,0,1,0-.9H398a.45.45,0,0,1,0,.9Z" transform="translate(-122.67 -97.42)"/></g><g id="Group_30616" data-name="Group 30616"><path id="Path_31196" data-name="Path 31196" class="cls-2" d="M398,174.39H396a.45.45,0,1,1,0-.9H398a.45.45,0,0,1,0,.9Z" transform="translate(-122.67 -97.42)"/></g><g id="Group_30617" data-name="Group 30617"><path id="Path_31197" data-name="Path 31197" class="cls-2" d="M398,177H396a.45.45,0,1,1,0-.9H398a.45.45,0,0,1,0,.9Z" transform="translate(-122.67 -97.42)"/></g><g id="Group_30618" data-name="Group 30618"><path id="Path_31198" data-name="Path 31198" class="cls-2" d="M398,179.68H396a.45.45,0,1,1,0-.9H398a.45.45,0,0,1,0,.9Z" transform="translate(-122.67 -97.42)"/></g><g id="Group_30619" data-name="Group 30619"><path id="Path_31199" data-name="Path 31199" class="cls-2" d="M398,182.32H396a.45.45,0,1,1,0-.9H398a.45.45,0,0,1,0,.9Z" transform="translate(-122.67 -97.42)"/></g><g id="Group_30620" data-name="Group 30620"><path id="Path_31200" data-name="Path 31200" class="cls-2" d="M398,185H396a.45.45,0,1,1,0-.9H398a.45.45,0,0,1,0,.9Z" transform="translate(-122.67 -97.42)"/></g><g id="Group_30621" data-name="Group 30621"><path id="Path_31201" data-name="Path 31201" class="cls-2" d="M398,187.61H396a.45.45,0,1,1,0-.9H398a.45.45,0,0,1,0,.9Z" transform="translate(-122.67 -97.42)"/></g><g id="Group_30622" data-name="Group 30622"><path id="Path_31202" data-name="Path 31202" class="cls-2" d="M357.38,166.88a.45.45,0,0,1-.45-.45h0V150.86a.45.45,0,1,1,.9,0h0v15.57A.45.45,0,0,1,357.38,166.88Z" transform="translate(-122.67 -97.42)"/></g><g id="Group_30623" data-name="Group 30623"><path id="Path_31203" data-name="Path 31203" class="cls-2" d="M357.38,173.65a.45.45,0,0,1-.45-.45h0v-2.77a.45.45,0,0,1,.9,0v2.77a.45.45,0,0,1-.45.45Z" transform="translate(-122.67 -97.42)"/></g><g id="Group_30624" data-name="Group 30624"><path id="Path_31204" data-name="Path 31204" class="cls-2" d="M357.38,185a.45.45,0,0,1-.45-.45h0v-8.78a.45.45,0,0,1,.9,0v8.78a.45.45,0,0,1-.45.45Z" transform="translate(-122.67 -97.42)"/></g><g id="Group_30625" data-name="Group 30625"><path id="Path_31205" data-name="Path 31205" class="cls-2" d="M387,163.37a.45.45,0,0,1-.32-.13L382.43,159a.45.45,0,0,1,.64-.64h0l4.28,4.28a.45.45,0,0,1-.32.77Z" transform="translate(-122.67 -97.42)"/></g><g id="Group_30626" data-name="Group 30626"><path id="Path_31206" data-name="Path 31206" class="cls-2" d="M387,167.65a.44.44,0,0,1-.32-.13l-4.28-4.28a.45.45,0,1,1,.64-.64l4.28,4.28a.45.45,0,0,1-.32.77Z" transform="translate(-122.67 -97.42)"/></g><g id="Group_30627" data-name="Group 30627"><path id="Path_31207" data-name="Path 31207" class="cls-2" d="M387,171.93a.44.44,0,0,1-.32-.13l-4.28-4.28a.45.45,0,1,1,.64-.64l4.28,4.28a.45.45,0,0,1-.32.77Z" transform="translate(-122.67 -97.42)"/></g><g id="Group_30628" data-name="Group 30628"><path id="Path_31208" data-name="Path 31208" class="cls-2" d="M387,176.21a.44.44,0,0,1-.32-.13l-4.28-4.28a.45.45,0,0,1,.64-.64h0l4.28,4.28a.45.45,0,0,1-.32.77Z" transform="translate(-122.67 -97.42)"/></g><g id="Group_30629" data-name="Group 30629"><path id="Path_31209" data-name="Path 31209" class="cls-2" d="M387,180.49a.45.45,0,0,1-.32-.13l-4.28-4.28a.45.45,0,0,1,.64-.64l4.28,4.28a.45.45,0,0,1-.32.77Z" transform="translate(-122.67 -97.42)"/></g><g id="Group_30630" data-name="Group 30630"><path id="Path_31210" data-name="Path 31210" class="cls-2" d="M387,184.77a.45.45,0,0,1-.32-.13l-4.28-4.28a.45.45,0,0,1,.64-.64h0l4.28,4.28a.45.45,0,0,1-.32.77Z" transform="translate(-122.67 -97.42)"/></g><g id="Group_30631" data-name="Group 30631"><path id="Path_31211" data-name="Path 31211" class="cls-2" d="M387,189a.44.44,0,0,1-.32-.13l-4.28-4.28a.45.45,0,0,1,.64-.64h0l4.28,4.28a.45.45,0,0,1-.32.77Z" transform="translate(-122.67 -97.42)"/></g></g></g><g id="Group_30677" data-name="Group 30677"><g id="Group_30637" data-name="Group 30637"><g id="Group_30634" data-name="Group 30634"><path id="Path_31212" data-name="Path 31212" class="cls-2" d="M477.05,148.7a.45.45,0,0,1-.45-.45h0v-.45a.45.45,0,1,1,.9,0h0v.45a.45.45,0,0,1-.45.45h0Z" transform="translate(-122.67 -97.42)"/></g><g id="Group_30635" data-name="Group 30635"><path id="Path_31213" data-name="Path 31213" class="cls-2" d="M477.05,152.48a.45.45,0,0,1-.45-.45h0v-.95a.45.45,0,1,1,.9,0h0V152a.45.45,0,0,1-.45.45h0Z" transform="translate(-122.67 -97.42)"/></g><g id="Group_30636" data-name="Group 30636"><path id="Path_31214" data-name="Path 31214" class="cls-2" d="M477.05,155.77a.45.45,0,0,1-.45-.45h0v-.45a.45.45,0,1,1,.9,0h0v.45a.45.45,0,0,1-.45.45h0Z" transform="translate(-122.67 -97.42)"/></g></g><g id="Group_30641" data-name="Group 30641"><g id="Group_30638" data-name="Group 30638"><path id="Path_31215" data-name="Path 31215" class="cls-2" d="M470.05,150.1a.45.45,0,0,1-.42-.28l-.17-.42a.45.45,0,1,1,.83-.34l.17.42a.45.45,0,0,1-.24.59h0A.43.43,0,0,1,470.05,150.1Z" transform="translate(-122.67 -97.42)"/></g><g id="Group_30639" data-name="Group 30639"><path id="Path_31216" data-name="Path 31216" class="cls-2" d="M471.49,153.6a.45.45,0,0,1-.42-.28l-.36-.87a.45.45,0,1,1,.83-.34l.36.87a.45.45,0,0,1-.42.62Z" transform="translate(-122.67 -97.42)"/></g><g id="Group_30640" data-name="Group 30640"><path id="Path_31217" data-name="Path 31217" class="cls-2" d="M472.74,156.63a.45.45,0,0,1-.42-.28l-.17-.42a.45.45,0,1,1,.83-.34l.17.42a.45.45,0,0,1-.24.59h0A.44.44,0,0,1,472.74,156.63Z" transform="translate(-122.67 -97.42)"/></g></g><g id="Group_30645" data-name="Group 30645"><g id="Group_30642" data-name="Group 30642"><path id="Path_31218" data-name="Path 31218" class="cls-2" d="M464.12,154.09a.45.45,0,0,1-.32-.13l-.32-.32a.45.45,0,0,1,.64-.63h0l.32.32a.45.45,0,0,1-.32.77Z" transform="translate(-122.67 -97.42)"/></g><g id="Group_30643" data-name="Group 30643"><path id="Path_31219" data-name="Path 31219" class="cls-2" d="M466.78,156.77a.45.45,0,0,1-.32-.13l-.67-.67a.45.45,0,0,1,.64-.63l.67.67a.45.45,0,0,1-.32.77Z" transform="translate(-122.67 -97.42)"/></g><g id="Group_30644" data-name="Group 30644"><path id="Path_31220" data-name="Path 31220" class="cls-2" d="M469.09,159.1a.44.44,0,0,1-.32-.13l-.32-.32a.45.45,0,1,1,.61-.66l0,0,.32.32a.45.45,0,0,1-.32.77Z" transform="translate(-122.67 -97.42)"/></g></g><g id="Group_30649" data-name="Group 30649"><g id="Group_30646" data-name="Group 30646"><path id="Path_31221" data-name="Path 31221" class="cls-2" d="M485,159.09a.45.45,0,0,1-.32-.77L485,158a.45.45,0,0,1,.64.63h0l-.32.32A.45.45,0,0,1,485,159.09Z" transform="translate(-122.67 -97.42)"/></g><g id="Group_30647" data-name="Group 30647"><path id="Path_31222" data-name="Path 31222" class="cls-2" d="M487.33,156.77A.45.45,0,0,1,487,156l.66-.67a.45.45,0,0,1,.64.63h0l-.66.67A.45.45,0,0,1,487.33,156.77Z" transform="translate(-122.67 -97.42)"/></g><g id="Group_30648" data-name="Group 30648"><path id="Path_31223" data-name="Path 31223" class="cls-2" d="M490,154.09a.45.45,0,0,1-.32-.77L490,153a.45.45,0,0,1,.64.63h0l-.32.32A.45.45,0,0,1,490,154.09Z" transform="translate(-122.67 -97.42)"/></g></g><g id="Group_30653" data-name="Group 30653"><g id="Group_30650" data-name="Group 30650"><path id="Path_31224" data-name="Path 31224" class="cls-2" d="M481.36,156.64a.43.43,0,0,1-.17,0,.45.45,0,0,1-.25-.58h0l.17-.42a.45.45,0,1,1,.83.34h0l-.17.42A.45.45,0,0,1,481.36,156.64Z" transform="translate(-122.67 -97.42)"/></g><g id="Group_30651" data-name="Group 30651"><path id="Path_31225" data-name="Path 31225" class="cls-2" d="M482.62,153.6a.44.44,0,0,1-.17,0,.45.45,0,0,1-.25-.58h0l.36-.87a.45.45,0,1,1,.83.34l-.36.87a.45.45,0,0,1-.42.28Z" transform="translate(-122.67 -97.42)"/></g><g id="Group_30652" data-name="Group 30652"><path id="Path_31226" data-name="Path 31226" class="cls-2" d="M484.05,150.1a.43.43,0,0,1-.17,0,.45.45,0,0,1-.24-.58h0l.17-.42a.45.45,0,1,1,.83.34h0l-.17.42A.45.45,0,0,1,484.05,150.1Z" transform="translate(-122.67 -97.42)"/></g></g><g id="Group_30657" data-name="Group 30657"><g id="Group_30654" data-name="Group 30654"><path id="Path_31227" data-name="Path 31227" class="cls-2" d="M469.29,182.45H458.44a.45.45,0,0,1-.44-.55l1.08-4.85a.45.45,0,0,1,.44-.35h8.71a.45.45,0,0,1,.44.35l1.08,4.85a.45.45,0,0,1-.34.54h-.1Zm-10.3-.9h9.74l-.88-4h-8Z" transform="translate(-122.67 -97.42)"/></g><g id="Group_30655" data-name="Group 30655"><path id="Path_31228" data-name="Path 31228" class="cls-2" d="M482.48,182.45H471.62a.45.45,0,0,1-.35-.17.45.45,0,0,1-.09-.38l1.08-4.85a.45.45,0,0,1,.44-.35h8.71a.45.45,0,0,1,.44.35l1.08,4.85a.45.45,0,0,1-.09.38.45.45,0,0,1-.35.17Zm-10.3-.9h9.74l-.88-4h-8Z" transform="translate(-122.67 -97.42)"/></g><g id="Group_30656" data-name="Group 30656"><path id="Path_31229" data-name="Path 31229" class="cls-2" d="M495.67,182.45H484.81a.45.45,0,0,1-.35-.17.45.45,0,0,1-.09-.38l1.08-4.85a.45.45,0,0,1,.44-.35h8.71a.45.45,0,0,1,.44.35l1.08,4.85a.45.45,0,0,1-.09.38A.45.45,0,0,1,495.67,182.45Zm-10.3-.9h9.74l-.88-4h-8Z" transform="translate(-122.67 -97.42)"/></g></g><g id="Group_30660" data-name="Group 30660"><g id="Group_30658" data-name="Group 30658"><path id="Path_31230" data-name="Path 31230" class="cls-3" d="M474.82,168.69H466.1L465,173.54h10.86Z" transform="translate(-122.67 -97.42)"/><path id="Path_31231" data-name="Path 31231" class="cls-2" d="M475.89,174H465a.45.45,0,0,1-.44-.55l1.08-4.85a.45.45,0,0,1,.44-.35h8.71a.45.45,0,0,1,.44.35l1.08,4.85a.45.45,0,0,1-.34.54h-.1Zm-10.3-.9h9.74l-.88-4h-8Z" transform="translate(-122.67 -97.42)"/></g><g id="Group_30659" data-name="Group 30659"><path id="Path_31232" data-name="Path 31232" class="cls-3" d="M488,168.69h-8.71l-1.08,4.85h10.86L488,168.69Z" transform="translate(-122.67 -97.42)"/><path id="Path_31233" data-name="Path 31233" class="cls-2" d="M489.08,174H478.22a.45.45,0,0,1-.44-.55l1.08-4.85a.45.45,0,0,1,.44-.35H488a.45.45,0,0,1,.44.35l1.08,4.85a.45.45,0,0,1-.34.54h-.1Zm-10.3-.9h9.74l-.88-4h-8Z" transform="translate(-122.67 -97.42)"/></g></g><g id="Group_30661" data-name="Group 30661"><path id="Path_31234" data-name="Path 31234" class="cls-2" d="M482.48,165.52H471.62a.45.45,0,0,1-.35-.17.45.45,0,0,1-.09-.38l1.08-4.85a.45.45,0,0,1,.44-.35h8.71a.45.45,0,0,1,.44.35l1.08,4.85a.45.45,0,0,1-.09.38.44.44,0,0,1-.35.17Zm-10.3-.9h9.74l-.88-4h-8Z" transform="translate(-122.67 -97.42)"/></g><g id="Group_30666" data-name="Group 30666"><g id="Group_30662" data-name="Group 30662"><path id="Path_31235" data-name="Path 31235" class="cls-3" d="M461.63,185.61h-8.71l-1.08,4.85H462.7Z" transform="translate(-122.67 -97.42)"/><path id="Path_31236" data-name="Path 31236" class="cls-2" d="M462.7,190.91H451.84a.45.45,0,0,1-.44-.55l1.08-4.85a.45.45,0,0,1,.44-.35h8.71a.45.45,0,0,1,.44.35l1.08,4.85a.45.45,0,0,1-.09.38A.45.45,0,0,1,462.7,190.91Zm-10.3-.9h9.74l-.88-3.95h-8Z" transform="translate(-122.67 -97.42)"/></g><g id="Group_30663" data-name="Group 30663"><path id="Path_31237" data-name="Path 31237" class="cls-3" d="M474.82,185.61H466.1L465,190.46h10.86Z" transform="translate(-122.67 -97.42)"/><path id="Path_31238" data-name="Path 31238" class="cls-2" d="M475.89,190.91H465a.45.45,0,0,1-.44-.55l1.08-4.85a.45.45,0,0,1,.44-.35h8.71a.45.45,0,0,1,.44.35l1.08,4.85a.45.45,0,0,1-.34.54h-.1Zm-10.3-.9h9.74l-.88-3.95h-8Z" transform="translate(-122.67 -97.42)"/></g><g id="Group_30664" data-name="Group 30664"><path id="Path_31239" data-name="Path 31239" class="cls-3" d="M488,185.61h-8.71l-1.08,4.85h10.86L488,185.61Z" transform="translate(-122.67 -97.42)"/><path id="Path_31240" data-name="Path 31240" class="cls-2" d="M489.08,190.91H478.22a.45.45,0,0,1-.44-.55l1.08-4.85a.45.45,0,0,1,.44-.35H488a.45.45,0,0,1,.44.35l1.08,4.85a.45.45,0,0,1-.34.54h-.1Zm-10.3-.9h9.74l-.88-3.95h-8Z" transform="translate(-122.67 -97.42)"/></g><g id="Group_30665" data-name="Group 30665"><path id="Path_31241" data-name="Path 31241" class="cls-3" d="M501.19,185.61h-8.71l-1.08,4.85h10.86Z" transform="translate(-122.67 -97.42)"/><path id="Path_31242" data-name="Path 31242" class="cls-2" d="M502.27,190.91H491.4a.45.45,0,0,1-.44-.55l1.08-4.85a.45.45,0,0,1,.44-.35h8.71a.45.45,0,0,1,.44.35l1.08,4.85a.45.45,0,0,1-.34.54h-.1ZM492,190h9.74l-.88-3.95h-8Z" transform="translate(-122.67 -97.42)"/></g></g><g id="Group_30667" data-name="Group 30667"><path id="Path_31243" data-name="Path 31243" class="cls-2" d="M459.65,188.89H454.9a.45.45,0,1,1,0-.9h4.75a.45.45,0,0,1,0,.9Z" transform="translate(-122.67 -97.42)"/></g><g id="Group_30668" data-name="Group 30668"><path id="Path_31244" data-name="Path 31244" class="cls-2" d="M472.84,188.89h-4.75a.45.45,0,1,1,0-.9h4.75a.45.45,0,0,1,0,.9Z" transform="translate(-122.67 -97.42)"/></g><g id="Group_30669" data-name="Group 30669"><path id="Path_31245" data-name="Path 31245" class="cls-2" d="M486,188.89h-4.75a.45.45,0,0,1,0-.9H486a.45.45,0,1,1,0,.9Z" transform="translate(-122.67 -97.42)"/></g><g id="Group_30670" data-name="Group 30670"><path id="Path_31246" data-name="Path 31246" class="cls-2" d="M497.71,188.89H493a.45.45,0,0,1,0-.9h4.75a.45.45,0,0,1,0,.9Z" transform="translate(-122.67 -97.42)"/></g><g id="Group_30671" data-name="Group 30671"><path id="Path_31247" data-name="Path 31247" class="cls-2" d="M466.24,180.45h-4.75a.45.45,0,1,1,0-.9h4.75a.45.45,0,0,1,0,.9Z" transform="translate(-122.67 -97.42)"/></g><g id="Group_30672" data-name="Group 30672"><path id="Path_31248" data-name="Path 31248" class="cls-2" d="M479.43,180.45h-4.75a.45.45,0,0,1,0-.9h4.75a.45.45,0,0,1,0,.9Z" transform="translate(-122.67 -97.42)"/></g><g id="Group_30673" data-name="Group 30673"><path id="Path_31249" data-name="Path 31249" class="cls-2" d="M492.62,180.45h-4.75a.45.45,0,0,1,0-.9h4.75a.45.45,0,0,1,0,.9Z" transform="translate(-122.67 -97.42)"/></g><g id="Group_30674" data-name="Group 30674"><path id="Path_31250" data-name="Path 31250" class="cls-2" d="M472.84,172h-4.75a.45.45,0,1,1,0-.9h4.75a.45.45,0,0,1,0,.9Z" transform="translate(-122.67 -97.42)"/></g><g id="Group_30675" data-name="Group 30675"><path id="Path_31251" data-name="Path 31251" class="cls-2" d="M486,172h-4.75a.45.45,0,0,1,0-.9H486a.45.45,0,1,1,0,.9Z" transform="translate(-122.67 -97.42)"/></g><g id="Group_30676" data-name="Group 30676"><path id="Path_31252" data-name="Path 31252" class="cls-2" d="M479.43,163.58h-4.75a.45.45,0,0,1,0-.9h4.75a.45.45,0,0,1,0,.9Z" transform="translate(-122.67 -97.42)"/></g></g><g id="Group_30711" data-name="Group 30711"><g id="Group_30684" data-name="Group 30684"><g id="Group_30678" data-name="Group 30678"><path id="Path_31253" data-name="Path 31253" class="cls-2" d="M425.44,163.36h-16.5a.45.45,0,1,1,0-.9h16.5a.45.45,0,0,1,0,.9Z" transform="translate(-122.67 -97.42)"/></g><g id="Group_30679" data-name="Group 30679"><path id="Path_31254" data-name="Path 31254" class="cls-2" d="M425.44,190.91h-16.5a.45.45,0,1,1,0-.9h16.5a.45.45,0,0,1,0,.9Z" transform="translate(-122.67 -97.42)"/></g><g id="Group_30680" data-name="Group 30680"><path id="Path_31255" data-name="Path 31255" class="cls-2" d="M424,190.91a.45.45,0,0,1-.45-.45V162.91a.45.45,0,1,1,.9,0h0v27.55a.45.45,0,0,1-.45.45h0Z" transform="translate(-122.67 -97.42)"/></g><g id="Group_30681" data-name="Group 30681"><path id="Path_31256" data-name="Path 31256" class="cls-2" d="M410.42,190.91a.45.45,0,0,1-.45-.45h0V162.91a.45.45,0,1,1,.9,0h0v27.55a.45.45,0,0,1-.45.45h0Z" transform="translate(-122.67 -97.42)"/></g><g id="Group_30682" data-name="Group 30682"><path id="Path_31257" data-name="Path 31257" class="cls-2" d="M425.44,172.55h-16.5a.45.45,0,1,1,0-.9h16.5a.45.45,0,0,1,0,.9Z" transform="translate(-122.67 -97.42)"/></g><g id="Group_30683" data-name="Group 30683"><path id="Path_31258" data-name="Path 31258" class="cls-2" d="M425.44,181.73h-16.5a.45.45,0,1,1,0-.9h16.5a.45.45,0,0,1,0,.9Z" transform="translate(-122.67 -97.42)"/></g></g><g id="Group_30690" data-name="Group 30690"><g id="Group_30685" data-name="Group 30685"><path id="Path_31259" data-name="Path 31259" class="cls-2" d="M448.21,163.36h-7.14a.45.45,0,0,1,0-.9h7.14a.45.45,0,1,1,0,.9Z" transform="translate(-122.67 -97.42)"/></g><g id="Group_30686" data-name="Group 30686"><path id="Path_31260" data-name="Path 31260" class="cls-2" d="M448.21,190.91h-8.48a.45.45,0,0,1,0-.9h8.48a.45.45,0,1,1,0,.9Z" transform="translate(-122.67 -97.42)"/></g><g id="Group_30687" data-name="Group 30687"><path id="Path_31261" data-name="Path 31261" class="cls-2" d="M447,190.91a.45.45,0,0,1-.45-.45h0V162.91a.45.45,0,1,1,.9,0h0v27.55a.45.45,0,0,1-.45.45h0Z" transform="translate(-122.67 -97.42)"/></g><g id="Group_30688" data-name="Group 30688"><path id="Path_31262" data-name="Path 31262" class="cls-2" d="M448.21,172.55h-7.14a.45.45,0,0,1,0-.9h7.14a.45.45,0,1,1,0,.9Z" transform="translate(-122.67 -97.42)"/></g><g id="Group_30689" data-name="Group 30689"><path id="Path_31263" data-name="Path 31263" class="cls-2" d="M448.21,181.73h-7.14a.45.45,0,0,1,0-.9h7.14a.45.45,0,1,1,0,.9Z" transform="translate(-122.67 -97.42)"/></g></g><g id="Group_30691" data-name="Group 30691"><path id="Path_31264" data-name="Path 31264" class="cls-2" d="M439.74,153.27H417.19a.45.45,0,0,1,0-.9h22.54a.45.45,0,1,1,0,.9Z" transform="translate(-122.67 -97.42)"/></g><g id="Group_30692" data-name="Group 30692"><path id="Path_31265" data-name="Path 31265" class="cls-2" d="M439.74,190.91H425.44a.45.45,0,1,1,0-.9h14.3a.45.45,0,1,1,0,.9Z" transform="translate(-122.67 -97.42)"/></g><g id="Group_30693" data-name="Group 30693"><path id="Path_31266" data-name="Path 31266" class="cls-2" d="M437.72,190.91a.45.45,0,0,1-.45-.45h0V152.82a.45.45,0,0,1,.9,0v37.64a.45.45,0,0,1-.45.45h0Z" transform="translate(-122.67 -97.42)"/></g><g id="Group_30694" data-name="Group 30694"><path id="Path_31267" data-name="Path 31267" class="cls-2" d="M419.21,160.43a.45.45,0,0,1-.45-.45v-7.15a.45.45,0,0,1,.9,0V160A.45.45,0,0,1,419.21,160.43Z" transform="translate(-122.67 -97.42)"/></g><g id="Group_30695" data-name="Group 30695"><path id="Path_31268" data-name="Path 31268" class="cls-2" d="M439.73,165.82H426.92a.45.45,0,1,1,0-.9h12.82a.45.45,0,1,1,0,.9Z" transform="translate(-122.67 -97.42)"/></g><g id="Group_30696" data-name="Group 30696"><path id="Path_31269" data-name="Path 31269" class="cls-2" d="M439.73,178.37H426.92a.45.45,0,1,1,0-.9h12.82a.45.45,0,1,1,0,.9Z" transform="translate(-122.67 -97.42)"/></g><g id="Group_30697" data-name="Group 30697"><path id="Path_31270" data-name="Path 31270" class="cls-2" d="M421.32,168.47a.45.45,0,0,1-.45-.45h0v-2.58a.45.45,0,0,1,.9,0V168a.45.45,0,0,1-.45.45Z" transform="translate(-122.67 -97.42)"/></g><g id="Group_30698" data-name="Group 30698"><path id="Path_31271" data-name="Path 31271" class="cls-2" d="M421.32,177.63a.45.45,0,0,1-.45-.45v-2.4a.45.45,0,0,1,.9,0v2.4a.45.45,0,0,1-.45.45Z" transform="translate(-122.67 -97.42)"/></g><g id="Group_30699" data-name="Group 30699"><path id="Path_31272" data-name="Path 31272" class="cls-2" d="M421.32,188.85a.45.45,0,0,1-.45-.45v-4.1a.45.45,0,0,1,.9,0v4.1a.45.45,0,0,1-.45.45Z" transform="translate(-122.67 -97.42)"/></g><g id="Group_30700" data-name="Group 30700"><path id="Path_31273" data-name="Path 31273" class="cls-2" d="M435,159.91a.45.45,0,0,1-.45-.45v-4.1a.45.45,0,1,1,.9,0h0v4.1a.45.45,0,0,1-.45.45Z" transform="translate(-122.67 -97.42)"/></g><g id="Group_30701" data-name="Group 30701"><path id="Path_31274" data-name="Path 31274" class="cls-2" d="M435,163.57a.45.45,0,0,1-.45-.45h0V161.6a.45.45,0,1,1,.9,0v1.52a.45.45,0,0,1-.45.45Z" transform="translate(-122.67 -97.42)"/></g><g id="Group_30702" data-name="Group 30702"><path id="Path_31275" data-name="Path 31275" class="cls-2" d="M435,171.49a.45.45,0,0,1-.45-.45v-3.3a.45.45,0,0,1,.9,0V171a.45.45,0,0,1-.45.45Z" transform="translate(-122.67 -97.42)"/></g><g id="Group_30703" data-name="Group 30703"><path id="Path_31276" data-name="Path 31276" class="cls-2" d="M435,175.89a.45.45,0,0,1-.45-.45h0v-.84a.45.45,0,0,1,.9,0v.84a.45.45,0,0,1-.45.45Z" transform="translate(-122.67 -97.42)"/></g><g id="Group_30704" data-name="Group 30704"><path id="Path_31277" data-name="Path 31277" class="cls-2" d="M435,183.69a.45.45,0,0,1-.45-.45v-2.76a.45.45,0,0,1,.9,0v2.76a.45.45,0,0,1-.45.45h0Z" transform="translate(-122.67 -97.42)"/></g><g id="Group_30705" data-name="Group 30705"><path id="Path_31278" data-name="Path 31278" class="cls-2" d="M435,188.15a.45.45,0,0,1-.45-.45v-1.87a.45.45,0,0,1,.9,0v1.87a.45.45,0,0,1-.45.45Z" transform="translate(-122.67 -97.42)"/></g><g id="Group_30706" data-name="Group 30706"><path id="Path_31279" data-name="Path 31279" class="cls-2" d="M444.64,169.08a.45.45,0,0,1-.45-.45h0v-3.27a.45.45,0,0,1,.9,0v3.27a.45.45,0,0,1-.45.45h0Z" transform="translate(-122.67 -97.42)"/></g><g id="Group_30707" data-name="Group 30707"><path id="Path_31280" data-name="Path 31280" class="cls-2" d="M444.64,178.36a.45.45,0,0,1-.45-.45h0V174.4a.45.45,0,1,1,.9,0h0v3.52a.45.45,0,0,1-.45.45Z" transform="translate(-122.67 -97.42)"/></g><g id="Group_30708" data-name="Group 30708"><path id="Path_31281" data-name="Path 31281" class="cls-2" d="M444.64,185.83a.45.45,0,0,1-.45-.45h0v-1.6a.45.45,0,0,1,.9,0v1.6a.45.45,0,0,1-.45.45Z" transform="translate(-122.67 -97.42)"/></g><g id="Group_30709" data-name="Group 30709"><path id="Path_31282" data-name="Path 31282" class="cls-5" d="M432.19,144.57a3.73,3.73,0,0,1-7.46,0c0-2.06,3.73-7.79,3.73-7.79S432.19,142.51,432.19,144.57Z" transform="translate(-122.67 -97.42)"/></g><g id="Group_30710" data-name="Group 30710"><path id="Path_31283" data-name="Path 31283" class="cls-2" d="M428.47,146.52a.45.45,0,0,1,0-.9,1.05,1.05,0,0,0,1.05-1.05,4.53,4.53,0,0,0-.7-1.67.45.45,0,0,1,.79-.43h0a4.76,4.76,0,0,1,.81,2.11,2,2,0,0,1-2,2Z" transform="translate(-122.67 -97.42)"/></g></g><g id="Group_30728" data-name="Group 30728"><g id="Group_30712" data-name="Group 30712"><path id="Path_31284" data-name="Path 31284" class="cls-2" d="M231.84,190.65H201.13a.45.45,0,0,1,0-.9H231.4V170.57H223a.45.45,0,1,1,0-.9h8.89a.45.45,0,0,1,.45.45h0V190.2a.45.45,0,0,1-.45.45h0Z" transform="translate(-122.67 -97.42)"/></g><g id="Group_30713" data-name="Group 30713"><path id="Path_31285" data-name="Path 31285" class="cls-2" d="M197.53,190.65h-8.26a.45.45,0,0,1-.45-.45h0V170.12a.45.45,0,0,1,.45-.45h31.64a.45.45,0,1,1,0,.9H189.72v19.18h7.81a.45.45,0,1,1,0,.9h0Z" transform="translate(-122.67 -97.42)"/></g><g id="Group_30714" data-name="Group 30714"><path id="Path_31286" data-name="Path 31286" class="cls-2" d="M226.85,190.65h-.1a.45.45,0,0,1-.34-.54h0a9.61,9.61,0,0,1,5.23-6.51.45.45,0,0,1,.39.81,8.71,8.71,0,0,0-4.75,5.9A.45.45,0,0,1,226.85,190.65Z" transform="translate(-122.67 -97.42)"/></g><g id="Group_30715" data-name="Group 30715"><path id="Path_31287" data-name="Path 31287" class="cls-2" d="M194.26,190.65a.45.45,0,0,1-.44-.35,8.71,8.71,0,0,0-4.74-5.9.45.45,0,0,1,.37-.82h0a9.6,9.6,0,0,1,5.22,6.51.45.45,0,0,1-.34.54h-.1Z" transform="translate(-122.67 -97.42)"/></g><g id="Group_30716" data-name="Group 30716"><path id="Path_31288" data-name="Path 31288" class="cls-2" d="M231.83,176.77a.44.44,0,0,1-.2,0,9.32,9.32,0,0,1-5.22-6.51.45.45,0,0,1,.88-.19,8.44,8.44,0,0,0,4.74,5.89.45.45,0,0,1-.2.85Z" transform="translate(-122.67 -97.42)"/></g><g id="Group_30717" data-name="Group 30717"><path id="Path_31289" data-name="Path 31289" class="cls-2" d="M189.27,176.77a.45.45,0,0,1-.2-.86,8.57,8.57,0,0,0,4.78-5.89.45.45,0,0,1,.88.19,9.47,9.47,0,0,1-5.26,6.52A.45.45,0,0,1,189.27,176.77Z" transform="translate(-122.67 -97.42)"/></g><g id="Group_30720" data-name="Group 30720"><g id="Group_30718" data-name="Group 30718"><path id="Path_31290" data-name="Path 31290" class="cls-2" d="M200.2,180.61h-5.36a.45.45,0,0,1,0-.9h5.36a.45.45,0,1,1,0,.9Z" transform="translate(-122.67 -97.42)"/></g><g id="Group_30719" data-name="Group 30719"><path id="Path_31291" data-name="Path 31291" class="cls-2" d="M226.27,180.61h-5.36a.45.45,0,1,1,0-.9h5.36a.45.45,0,1,1,0,.9Z" transform="translate(-122.67 -97.42)"/></g></g><g id="Group_30721" data-name="Group 30721"><circle id="Ellipse_164" data-name="Ellipse 164" class="cls-5" cx="87.87" cy="82.74" r="4.35"/></g><g id="Group_30722" data-name="Group 30722"><path id="Path_31292" data-name="Path 31292" class="cls-2" d="M209.21,188.26H196.8a.45.45,0,1,1,0-.9h12.42a.45.45,0,0,1,0,.9Z" transform="translate(-122.67 -97.42)"/></g><g id="Group_30723" data-name="Group 30723"><path id="Path_31293" data-name="Path 31293" class="cls-2" d="M223.78,172.88H204a.45.45,0,0,1,0-.9h19.81a.45.45,0,1,1,0,.9Z" transform="translate(-122.67 -97.42)"/></g><g id="Group_30724" data-name="Group 30724"><path id="Path_31294" data-name="Path 31294" class="cls-2" d="M229.74,181.82a.45.45,0,0,1-.45-.45h0v-3.58a.45.45,0,1,1,.9,0h0v3.58A.45.45,0,0,1,229.74,181.82Z" transform="translate(-122.67 -97.42)"/></g><g id="Group_30725" data-name="Group 30725"><path id="Path_31295" data-name="Path 31295" class="cls-2" d="M191.49,183a.45.45,0,0,1-.45-.45v-4.23a.45.45,0,1,1,.9,0v4.23A.45.45,0,0,1,191.49,183Z" transform="translate(-122.67 -97.42)"/></g><g id="Group_30726" data-name="Group 30726"><path id="Path_31296" data-name="Path 31296" class="cls-2" d="M216.49,188.26h-3a.45.45,0,1,1,0-.9h3a.45.45,0,1,1,0,.9Z" transform="translate(-122.67 -97.42)"/></g><g id="Group_30727" data-name="Group 30727"><path id="Path_31297" data-name="Path 31297" class="cls-2" d="M225.16,188.26H219a.45.45,0,1,1,0-.9h6.14a.45.45,0,1,1,0,.9Z" transform="translate(-122.67 -97.42)"/></g></g><g id="Group_30755" data-name="Group 30755"><g id="Group_30729" data-name="Group 30729"><path id="Path_31298" data-name="Path 31298" class="cls-2" d="M179,155.17H130.84a.45.45,0,0,1,0-.9H179a.45.45,0,1,1,0,.9Z" transform="translate(-122.67 -97.42)"/></g><g id="Group_30730" data-name="Group 30730"><path id="Path_31299" data-name="Path 31299" class="cls-2" d="M134.59,178.44a.45.45,0,0,1-.45-.45h0V161a.45.45,0,1,1,.9,0h0v17a.45.45,0,0,1-.45.45Z" transform="translate(-122.67 -97.42)"/></g><g id="Group_30731" data-name="Group 30731"><path id="Path_31300" data-name="Path 31300" class="cls-2" d="M137.53,178.44a.45.45,0,0,1-.45-.45V161a.45.45,0,1,1,.9,0h0v17a.45.45,0,0,1-.45.45Z" transform="translate(-122.67 -97.42)"/></g><g id="Group_30732" data-name="Group 30732"><path id="Path_31301" data-name="Path 31301" class="cls-2" d="M144,178.44a.45.45,0,0,1-.45-.45V161a.45.45,0,1,1,.9,0v17a.45.45,0,0,1-.45.45Z" transform="translate(-122.67 -97.42)"/></g><g id="Group_30733" data-name="Group 30733"><path id="Path_31302" data-name="Path 31302" class="cls-2" d="M147,178.44a.45.45,0,0,1-.45-.45V161a.45.45,0,1,1,.9,0v17a.45.45,0,0,1-.45.45Z" transform="translate(-122.67 -97.42)"/></g><g id="Group_30734" data-name="Group 30734"><path id="Path_31303" data-name="Path 31303" class="cls-2" d="M162.88,178.44a.45.45,0,0,1-.45-.45V161a.45.45,0,1,1,.9,0v17a.45.45,0,0,1-.45.45Z" transform="translate(-122.67 -97.42)"/></g><g id="Group_30735" data-name="Group 30735"><path id="Path_31304" data-name="Path 31304" class="cls-2" d="M165.82,178.44a.45.45,0,0,1-.45-.45V161a.45.45,0,1,1,.9,0v17a.45.45,0,0,1-.45.45Z" transform="translate(-122.67 -97.42)"/></g><g id="Group_30736" data-name="Group 30736"><path id="Path_31305" data-name="Path 31305" class="cls-2" d="M172.31,178.44a.45.45,0,0,1-.45-.45h0V161a.45.45,0,1,1,.9,0v17a.45.45,0,0,1-.45.45Z" transform="translate(-122.67 -97.42)"/></g><g id="Group_30737" data-name="Group 30737"><path id="Path_31306" data-name="Path 31306" class="cls-2" d="M175.25,178.44a.45.45,0,0,1-.45-.45h0V161a.45.45,0,1,1,.9,0v17a.45.45,0,0,1-.45.45Z" transform="translate(-122.67 -97.42)"/></g><g id="Group_30738" data-name="Group 30738"><path id="Path_31307" data-name="Path 31307" class="cls-2" d="M137,150.24a.45.45,0,0,1-.31-.78l17.91-17a.45.45,0,0,1,.62.65h0l-17.91,17A.45.45,0,0,1,137,150.24Z" transform="translate(-122.67 -97.42)"/></g><g id="Group_30739" data-name="Group 30739"><path id="Path_31308" data-name="Path 31308" class="cls-2" d="M171.43,148.91a.45.45,0,0,1-.31-.12l-13.18-12.49a.45.45,0,0,1,.62-.65l13.18,12.49a.45.45,0,0,1-.31.78Z" transform="translate(-122.67 -97.42)"/></g><g id="Group_30740" data-name="Group 30740"><path id="Path_31309" data-name="Path 31309" class="cls-2" d="M142.07,148.92a.45.45,0,0,1-.31-.78L154.61,136a.45.45,0,0,1,.62,0l12.84,12.16a.45.45,0,1,1-.62.65h0l-12.53-11.87-12.53,11.87a.45.45,0,0,1-.31.12Z" transform="translate(-122.67 -97.42)"/></g><g id="Group_30741" data-name="Group 30741"><path id="Path_31310" data-name="Path 31310" class="cls-2" d="M179,152.53H130.84a.45.45,0,0,1,0-.9H179a.45.45,0,1,1,0,.9Z" transform="translate(-122.67 -97.42)"/></g><g id="Group_30742" data-name="Group 30742"><circle id="Ellipse_165" data-name="Ellipse 165" class="cls-5" cx="32.25" cy="48.25" r="2.8"/></g><g id="Group_30743" data-name="Group 30743"><path id="Path_31311" data-name="Path 31311" class="cls-2" d="M179,186.46a.45.45,0,0,1-.45-.45h0v-1.36H131.28V186a.45.45,0,1,1-.9,0h0V184.2a.45.45,0,0,1,.45-.45H179a.45.45,0,0,1,.45.45h0V186a.45.45,0,0,1-.45.45Z" transform="translate(-122.67 -97.42)"/></g><g id="Group_30744" data-name="Group 30744"><path id="Path_31312" data-name="Path 31312" class="cls-2" d="M181.58,190.65a.45.45,0,0,1-.45-.45h0v-1.36H128.71v1.36a.45.45,0,1,1-.9,0h0v-1.81a.45.45,0,0,1,.45-.45h53.32a.45.45,0,0,1,.45.45h0v1.81A.45.45,0,0,1,181.58,190.65Z" transform="translate(-122.67 -97.42)"/></g><g id="Group_30745" data-name="Group 30745"><path id="Rectangle_11933" data-name="Rectangle 11933" class="cls-5" d="M132.73,156.23h6.65v2.91h-6.65Z" transform="translate(-122.67 -97.42)"/></g><g id="Group_30746" data-name="Group 30746"><path id="Rectangle_11934" data-name="Rectangle 11934" class="cls-5" d="M142.16,156.23h6.65v2.91h-6.65Z" transform="translate(-122.67 -97.42)"/></g><g id="Group_30747" data-name="Group 30747"><path id="Rectangle_11935" data-name="Rectangle 11935" class="cls-5" d="M151.59,156.23h6.65v2.91h-6.65Z" transform="translate(-122.67 -97.42)"/></g><g id="Group_30748" data-name="Group 30748"><path id="Rectangle_11936" data-name="Rectangle 11936" class="cls-5" d="M161,156.23h6.65v2.91H161Z" transform="translate(-122.67 -97.42)"/></g><g id="Group_30749" data-name="Group 30749"><path id="Rectangle_11937" data-name="Rectangle 11937" class="cls-5" d="M170.45,156.23h6.65v2.91h-6.65Z" transform="translate(-122.67 -97.42)"/></g><g id="Group_30750" data-name="Group 30750"><path id="Rectangle_11938" data-name="Rectangle 11938" class="cls-5" d="M132.73,179.61h6.65v2.91h-6.65Z" transform="translate(-122.67 -97.42)"/></g><g id="Group_30751" data-name="Group 30751"><path id="Rectangle_11939" data-name="Rectangle 11939" class="cls-5" d="M142.16,179.61h6.65v2.91h-6.65Z" transform="translate(-122.67 -97.42)"/></g><g id="Group_30752" data-name="Group 30752"><path id="Path_31313" data-name="Path 31313" class="cls-5" d="M151.59,182.52V172.8a3.33,3.33,0,0,1,6.65,0v9.71Z" transform="translate(-122.67 -97.42)"/></g><g id="Group_30753" data-name="Group 30753"><path id="Rectangle_11940" data-name="Rectangle 11940" class="cls-5" d="M161,179.61h6.65v2.91H161Z" transform="translate(-122.67 -97.42)"/></g><g id="Group_30754" data-name="Group 30754"><path id="Rectangle_11941" data-name="Rectangle 11941" class="cls-5" d="M170.45,179.61h6.65v2.91h-6.65Z" transform="translate(-122.67 -97.42)"/></g></g><g id="Group_30821" data-name="Group 30821" class="cls-6"><g id="Group_30774" data-name="Group 30774"><path id="Path_31328" data-name="Path 31328" class="cls-2" d="M257.44,190.65a19.4,19.4,0,0,1-17.12-10.25.45.45,0,0,1,.79-.43h0a18.53,18.53,0,0,0,32.66,0,.45.45,0,0,1,.79.42,19.41,19.41,0,0,1-17.12,10.25Z" transform="translate(-122.67 -97.42)"/></g><g id="Group_30775" data-name="Group 30775"><path id="Path_31329" data-name="Path 31329" class="cls-2" d="M272.71,160.42a.45.45,0,0,1-.36-.18,18.48,18.48,0,0,0-11.3-7.18.45.45,0,0,1,.17-.88,19.37,19.37,0,0,1,11.85,7.53.45.45,0,0,1-.36.72Z" transform="translate(-122.67 -97.42)"/></g><g id="Group_30776" data-name="Group 30776"><path id="Path_31330" data-name="Path 31330" class="cls-2" d="M240.72,162.73a.44.44,0,0,1-.21-.05.45.45,0,0,1-.18-.61h0a19.56,19.56,0,0,1,13.79-10,.45.45,0,1,1,.15.89h0a18.65,18.65,0,0,0-13.15,9.51.45.45,0,0,1-.4.24Z" transform="translate(-122.67 -97.42)"/></g><g id="Group_30820" data-name="Group 30820"><g class="cls-7"><g id="Group_30777" data-name="Group 30777"><g id="Group_30047" data-name="Group 30047"><g class="cls-8"><g id="Group_30046" data-name="Group 30046"><path id="Path_30487" data-name="Path 30487" class="cls-9" d="M247.63,183.74h18.88V160H247.63Z" transform="translate(-122.67 -97.42)"/></g></g></g></g><g id="Group_30782" data-name="Group 30782"><g id="Group_30778" data-name="Group 30778"><path id="Path_31331" data-name="Path 31331" class="cls-4" d="M266.11,146.54a.45.45,0,0,1-.4-.25l-.87-1.77a6,6,0,0,1-.89-.13l-1.34,1.45a.45.45,0,0,1-.5.11,8.09,8.09,0,0,1-.89-.44A.45.45,0,0,1,261,145l.34-1.95-.33-.3c-.11-.1-.21-.21-.31-.33l-1.94.39a.45.45,0,0,1-.47-.21,8.22,8.22,0,0,1-.46-.88.45.45,0,0,1,.1-.51l1.42-1.37a6.26,6.26,0,0,1-.15-.88l-1.8-.83a.45.45,0,0,1-.26-.45,8.22,8.22,0,0,1,.15-1,.45.45,0,0,1,.38-.35l2-.28a6.2,6.2,0,0,1,.4-.8l-1-1.72a.45.45,0,0,1,.05-.51l.33-.37.36-.34a.45.45,0,0,1,.51-.06l1.74.92a6.13,6.13,0,0,1,.8-.42l.23-2a.45.45,0,0,1,.34-.39,8.25,8.25,0,0,1,1-.17.45.45,0,0,1,.45.25l.87,1.78a6.15,6.15,0,0,1,.89.13L268,131a.45.45,0,0,1,.5-.11,8.1,8.1,0,0,1,.89.44.45.45,0,0,1,.22.47l-.34,1.95.33.3c.11.1.21.21.31.33l1.94-.39a.45.45,0,0,1,.47.21,8,8,0,0,1,.46.88.45.45,0,0,1-.1.51L271.21,137a6,6,0,0,1,.15.88l1.8.83a.45.45,0,0,1,.26.45,8.17,8.17,0,0,1-.15,1,.45.45,0,0,1-.38.35l-2,.28a6,6,0,0,1-.4.81l1,1.72a.45.45,0,0,1-.05.51c-.11.13-.22.25-.34.37l-.36.34a.45.45,0,0,1-.51.06l-1.74-.92a5.93,5.93,0,0,1-.8.42l-.23,2a.45.45,0,0,1-.34.39,8.28,8.28,0,0,1-1,.17Zm-2.31-3.11.12,0a5.31,5.31,0,0,0,1.22.18.45.45,0,0,1,.39.25l.84,1.72.25,0,.23-1.9a.45.45,0,0,1,.29-.37,5.18,5.18,0,0,0,1.09-.57.45.45,0,0,1,.47,0l1.69.9.09-.09.09-.09-.94-1.67a.45.45,0,0,1,0-.46,5.19,5.19,0,0,0,.55-1.11.45.45,0,0,1,.36-.3l1.9-.27q0-.13,0-.25l-1.74-.8a.45.45,0,0,1-.26-.39,5.22,5.22,0,0,0-.21-1.22.45.45,0,0,1,.12-.45l1.38-1.33-.12-.23-1.88.38a.45.45,0,0,1-.44-.16,5.23,5.23,0,0,0-.41-.46,5.67,5.67,0,0,0-.47-.4.45.45,0,0,1-.17-.43l.33-1.89-.23-.11-1.3,1.41a.45.45,0,0,1-.45.13,5.31,5.31,0,0,0-1.22-.18A.45.45,0,0,1,265,133l-.84-1.72-.25,0-.23,1.9a.45.45,0,0,1-.29.37,5.16,5.16,0,0,0-1.09.57.45.45,0,0,1-.47,0l-1.69-.9-.09.09-.09.09.94,1.67a.45.45,0,0,1,0,.47,5.23,5.23,0,0,0-.55,1.11.45.45,0,0,1-.36.3l-1.9.27q0,.13,0,.25l1.74.8a.45.45,0,0,1,.26.39,5.25,5.25,0,0,0,.21,1.21.45.45,0,0,1-.12.45l-1.38,1.33.12.23,1.88-.37a.45.45,0,0,1,.44.16,5.14,5.14,0,0,0,.88.86.45.45,0,0,1,.17.43l-.33,1.89.23.11,1.3-1.41a.44.44,0,0,1,.33-.15Z" transform="translate(-122.67 -97.42)"/></g><g id="Group_30779" data-name="Group 30779"><path id="Path_31332" data-name="Path 31332" class="cls-3" d="M262.47,135.52a4,4,0,1,1,.07,5.7,4,4,0,0,1-.07-5.7Z" transform="translate(-122.67 -97.42)"/></g><g id="Group_30780" data-name="Group 30780"><path id="Path_31333" data-name="Path 31333" class="cls-4" d="M252.73,149.51a.45.45,0,0,1-.4-.25l-.65-1.34a4.93,4.93,0,0,1-.6-.09l-1,1.1a.44.44,0,0,1-.51.11,6.35,6.35,0,0,1-.71-.35.45.45,0,0,1-.22-.47l.26-1.47-.22-.2-.21-.22-1.46.29a.45.45,0,0,1-.47-.21,6.43,6.43,0,0,1-.36-.7.45.45,0,0,1,.1-.51l1.07-1a4.78,4.78,0,0,1-.1-.6l-1.35-.62a.45.45,0,0,1-.26-.45,6.69,6.69,0,0,1,.12-.78.45.45,0,0,1,.38-.35l1.47-.21a4.89,4.89,0,0,1,.27-.54l-.73-1.3a.45.45,0,0,1,.05-.51l.26-.29.29-.27a.45.45,0,0,1,.51-.06l1.32.7a5,5,0,0,1,.54-.28l.17-1.48a.45.45,0,0,1,.35-.39,6.69,6.69,0,0,1,.78-.13.45.45,0,0,1,.45.25l.65,1.34a4.94,4.94,0,0,1,.6.09l1-1.09a.45.45,0,0,1,.5-.11,6.51,6.51,0,0,1,.71.35.45.45,0,0,1,.22.47l-.26,1.47.22.2.21.22,1.46-.29a.45.45,0,0,1,.47.21,6.31,6.31,0,0,1,.36.7.45.45,0,0,1-.1.51l-1.07,1a5,5,0,0,1,.1.6l1.35.62a.45.45,0,0,1,.26.45,6.2,6.2,0,0,1-.12.78.45.45,0,0,1-.38.35l-1.48.21a5,5,0,0,1-.27.54l.73,1.3a.45.45,0,0,1-.05.51l-.26.29-.29.27a.45.45,0,0,1-.51.07l-1.32-.7a4.92,4.92,0,0,1-.54.28L253.9,149a.45.45,0,0,1-.34.39,6.68,6.68,0,0,1-.78.13Zm-1.81-2.63.12,0a3.94,3.94,0,0,0,.93.14.45.45,0,0,1,.39.25l.63,1.28H253l.17-1.42a.45.45,0,0,1,.29-.37,4,4,0,0,0,.83-.44.45.45,0,0,1,.46,0l1.26.67,0,0,0,0-.7-1.25a.45.45,0,0,1,0-.47,4,4,0,0,0,.42-.84.45.45,0,0,1,.36-.3l1.41-.2v-.05l-1.3-.6a.45.45,0,0,1-.26-.39,4,4,0,0,0-.16-.93.45.45,0,0,1,.12-.45l1-1,0,0-1.4.28a.45.45,0,0,1-.44-.16,4.14,4.14,0,0,0-.32-.35,4.09,4.09,0,0,0-.35-.31.45.45,0,0,1-.17-.43l.25-1.41,0,0-1,1.05a.45.45,0,0,1-.45.13,4.05,4.05,0,0,0-.93-.14.45.45,0,0,1-.39-.25l-.63-1.28h-.05l-.17,1.42a.45.45,0,0,1-.29.37,4,4,0,0,0-.83.44.45.45,0,0,1-.46,0l-1.26-.67,0,0,0,0,.7,1.25a.45.45,0,0,1,0,.47,3.92,3.92,0,0,0-.42.84.45.45,0,0,1-.36.3l-1.41.2v.05l1.3.6a.45.45,0,0,1,.26.39,4,4,0,0,0,.16.93.45.45,0,0,1-.12.45l-1,1,0,0,1.4-.28a.45.45,0,0,1,.44.16,4,4,0,0,0,.32.35,4.22,4.22,0,0,0,.36.31.45.45,0,0,1,.17.43l-.25,1.42,0,0,1-1a.45.45,0,0,1,.33-.15Z" transform="translate(-122.67 -97.42)"/></g><g id="Group_30781" data-name="Group 30781"><path id="Path_31334" data-name="Path 31334" class="cls-5" d="M249.88,140.8a3.15,3.15,0,1,1,.05,4.46,3.15,3.15,0,0,1-.05-4.46Z" transform="translate(-122.67 -97.42)"/></g></g><g id="Group_30802" data-name="Group 30802"><g id="Group_30786" data-name="Group 30786"><g id="Group_30783" data-name="Group 30783"><path id="Path_31335" data-name="Path 31335" class="cls-2" d="M217.43,138.95a.45.45,0,0,1-.45-.45h0V138a.45.45,0,1,1,.9,0v.45a.45.45,0,0,1-.45.45Z" transform="translate(-122.67 -97.42)"/></g><g id="Group_30784" data-name="Group 30784"><path id="Path_31336" data-name="Path 31336" class="cls-2" d="M217.43,143.06a.45.45,0,0,1-.45-.45v-1a.45.45,0,1,1,.9,0v1A.45.45,0,0,1,217.43,143.06Z" transform="translate(-122.67 -97.42)"/></g><g id="Group_30785" data-name="Group 30785"><path id="Path_31337" data-name="Path 31337" class="cls-2" d="M217.43,146.6a.45.45,0,0,1-.45-.45h0v-.45a.45.45,0,1,1,.9,0v.45a.45.45,0,0,1-.45.45Z" transform="translate(-122.67 -97.42)"/></g></g><g id="Group_30790" data-name="Group 30790"><g id="Group_30787" data-name="Group 30787"><path id="Path_31338" data-name="Path 31338" class="cls-2" d="M221.05,138.95a.45.45,0,0,1-.45-.45h0V138a.45.45,0,1,1,.9,0v.45a.45.45,0,0,1-.45.45Z" transform="translate(-122.67 -97.42)"/></g><g id="Group_30788" data-name="Group 30788"><path id="Path_31339" data-name="Path 31339" class="cls-2" d="M221.05,143.06a.45.45,0,0,1-.45-.45v-1a.45.45,0,1,1,.9,0v1A.45.45,0,0,1,221.05,143.06Z" transform="translate(-122.67 -97.42)"/></g><g id="Group_30789" data-name="Group 30789"><path id="Path_31340" data-name="Path 31340" class="cls-2" d="M221.05,146.6a.45.45,0,0,1-.45-.45h0v-.45a.45.45,0,1,1,.9,0v.45a.45.45,0,0,1-.45.45Z" transform="translate(-122.67 -97.42)"/></g></g><g id="Group_30791" data-name="Group 30791"><path id="Path_31341" data-name="Path 31341" class="cls-2" d="M218,152.14h-2.16a.45.45,0,0,1-.45-.45v-5.54a.45.45,0,0,1,.45-.45H218a.45.45,0,0,1,.45.45v5.54A.45.45,0,0,1,218,152.14Zm-1.71-.9h1.26V146.6h-1.26Z" transform="translate(-122.67 -97.42)"/></g><g id="Group_30792" data-name="Group 30792"><path id="Path_31342" data-name="Path 31342" class="cls-2" d="M221.65,146h-1.79a.45.45,0,0,1-.45-.45h0v-2.89a.45.45,0,0,1,.45-.45h1.79a.45.45,0,0,1,.45.45h0v2.89A.45.45,0,0,1,221.65,146Zm-1.34-.9h.89v-2h-.89Z" transform="translate(-122.67 -97.42)"/></g><g id="Group_30796" data-name="Group 30796"><g id="Group_30793" data-name="Group 30793"><path id="Path_31343" data-name="Path 31343" class="cls-2" d="M222.66,163.14h-7.54a2.79,2.79,0,0,1-2.79-2.79V134.27a2.79,2.79,0,0,1,2.79-2.79H227a2.79,2.79,0,0,1,2.79,2.79v9.16a.45.45,0,1,1-.9,0v-9.16a1.89,1.89,0,0,0-1.89-1.89H215.12a1.89,1.89,0,0,0-1.89,1.89v26.09a1.89,1.89,0,0,0,1.89,1.89h7.54a.45.45,0,0,1,0,.9Z" transform="translate(-122.67 -97.42)"/></g><g id="Group_30794" data-name="Group 30794"><path id="Path_31344" data-name="Path 31344" class="cls-2" d="M227.09,136.58H212.78a.45.45,0,1,1,0-.9h14.31a.45.45,0,0,1,0,.9Z" transform="translate(-122.67 -97.42)"/></g><g id="Group_30795" data-name="Group 30795"><path id="Path_31345" data-name="Path 31345" class="cls-2" d="M221.41,158.51H215a.45.45,0,1,1,0-.9h6.4a.45.45,0,0,1,0,.9Z" transform="translate(-122.67 -97.42)"/></g></g><g id="Group_30797" data-name="Group 30797"><path id="Path_31346" data-name="Path 31346" class="cls-2" d="M222,134.4h-1.9a.45.45,0,0,1,0-.9H222a.45.45,0,0,1,0,.9Z" transform="translate(-122.67 -97.42)"/></g><g id="Group_30798" data-name="Group 30798"><path id="Path_31347" data-name="Path 31347" class="cls-2" d="M222.66,160.82h-3.22a.45.45,0,1,1,0-.9h3.22a.45.45,0,1,1,0,.9Z" transform="translate(-122.67 -97.42)"/></g><g id="Group_30799" data-name="Group 30799"><path id="Path_31348" data-name="Path 31348" class="cls-2" d="M227.09,138.5H215a.45.45,0,1,1,0-.9h12.09a.45.45,0,0,1,0,.9Z" transform="translate(-122.67 -97.42)"/></g><g id="Group_30800" data-name="Group 30800"><path id="Path_31349" data-name="Path 31349" class="cls-2" d="M220.52,156.72H215a.45.45,0,1,1,0-.9h5.51a.45.45,0,0,1,0,.9Z" transform="translate(-122.67 -97.42)"/></g><g id="Group_30801" data-name="Group 30801"><path id="Path_31350" data-name="Path 31350" class="cls-3" d="M230.74,161.76v-3.1l1.54-3.39v-4.38a.82.82,0,0,0-.5-.76v-1.92a1,1,0,1,0-2.06-.06s0,0,0,.06l0,1.87-.1-3a1,1,0,0,0-2.06,0l-.08,3-.07-4.64a1,1,0,1,0-2.06,0l-.05,4.64-.09-6.94a1,1,0,1,0-2.06,0v7a.82.82,0,0,0-.54.47l-.65-2.36a1,1,0,0,0-2,.5v0l1.54,5.61a1,1,0,0,0,.18.36v0l2.5,3.91V165Z" transform="translate(-122.67 -97.42)"/></g></g><g id="Group_30819" data-name="Group 30819"><g id="Group_30803" data-name="Group 30803"><path id="Path_31351" data-name="Path 31351" class="cls-2" d="M302.73,140.35a.45.45,0,0,1-.45-.45c0-9.37,5.65-15.2,14.74-15.2s14.74,5.82,14.74,15.2a.45.45,0,0,1-.45.45h-.06L322,139.06a.45.45,0,0,1-.34-.24c0-.06-3-5.54-7.53-5.84-1.12,5.78-10.9,7.29-11.33,7.36h-.07Zm19.6-2.15,8.53,1.18c-.2-8.64-5.34-13.78-13.84-13.78s-13.63,5.13-13.84,13.76c2.06-.4,9.54-2.18,10.11-6.89a.45.45,0,0,1,.45-.4c4.86,0,8,5,8.6,6.13Z" transform="translate(-122.67 -97.42)"/></g><g id="Group_30805" data-name="Group 30805"><g id="Group_30804" data-name="Group 30804"><path id="Path_31352" data-name="Path 31352" class="cls-2" d="M317,160.54c-4.43,0-12.63-3.62-12.88-12.31a3.17,3.17,0,0,1-2.29-3.23,3,3,0,0,1,2.73-3.28.45.45,0,0,1,0,.9h0a2.46,2.46,0,0,0,0,4.76.45.45,0,0,1,.45.45h0c0,8.35,7.81,11.82,12,11.82s12-3.47,12-11.82a.45.45,0,0,1,.45-.45h0a2.46,2.46,0,0,0,0-4.76.45.45,0,0,1,0-.9h0A3,3,0,0,1,332.2,145a3.17,3.17,0,0,1-2.29,3.23c-.25,8.7-8.46,12.31-12.88,12.31Z" transform="translate(-122.67 -97.42)"/></g></g><g id="Group_30806" data-name="Group 30806"><path id="Path_31353" data-name="Path 31353" class="cls-5" d="M312.05,146.58h-2a2,2,0,0,1-2-2v-1.76a.69.69,0,0,1,.69-.69h6a.69.69,0,0,1,.63,1l-.83,1.87A2.67,2.67,0,0,1,312.05,146.58Z" transform="translate(-122.67 -97.42)"/><path id="Path_31354" data-name="Path 31354" class="cls-2" d="M312,147h-2a2.43,2.43,0,0,1-2.43-2.43v-1.76a1.14,1.14,0,0,1,1.13-1.14h6a1.13,1.13,0,0,1,1,1.6l-.83,1.87A3.12,3.12,0,0,1,312,147Zm-3.34-4.42a.24.24,0,0,0-.24.24v1.76a1.53,1.53,0,0,0,1.53,1.53h2a2.22,2.22,0,0,0,2-1.32l.83-1.87a.24.24,0,0,0,0-.23.23.23,0,0,0-.2-.11Z" transform="translate(-122.67 -97.42)"/></g><g id="Group_30807" data-name="Group 30807"><path id="Path_31355" data-name="Path 31355" class="cls-5" d="M324.05,146.58h-2a2.67,2.67,0,0,1-2.44-1.59l-.83-1.87a.69.69,0,0,1,.63-1h6a.69.69,0,0,1,.69.69h0v1.76a2,2,0,0,1-2,2Z" transform="translate(-122.67 -97.42)"/><path id="Path_31356" data-name="Path 31356" class="cls-2" d="M324.05,147h-2a3.12,3.12,0,0,1-2.85-1.86l-.83-1.87a1.14,1.14,0,0,1,1-1.6h6a1.14,1.14,0,0,1,1.13,1.14v1.76A2.43,2.43,0,0,1,324.05,147Zm-4.69-4.42a.23.23,0,0,0-.2.11.23.23,0,0,0,0,.23l.83,1.87a2.22,2.22,0,0,0,2,1.32h2a1.53,1.53,0,0,0,1.53-1.53v-1.76a.24.24,0,0,0-.24-.24Z" transform="translate(-122.67 -97.42)"/></g><g id="Group_30808" data-name="Group 30808"><path id="Path_31357" data-name="Path 31357" class="cls-2" d="M328.6,143.76H326a.45.45,0,0,1,0-.9h2.57a.45.45,0,0,1,0,.9Z" transform="translate(-122.67 -97.42)"/></g><g id="Group_30809" data-name="Group 30809"><path id="Path_31358" data-name="Path 31358" class="cls-2" d="M318.82,143.76h-3.58a.45.45,0,0,1,0-.9h3.58a.45.45,0,0,1,0,.9Z" transform="translate(-122.67 -97.42)"/></g><g id="Group_30810" data-name="Group 30810"><path id="Path_31359" data-name="Path 31359" class="cls-2" d="M308,143.76h-2.57a.45.45,0,0,1,0-.9H308a.45.45,0,0,1,0,.9Z" transform="translate(-122.67 -97.42)"/></g><g id="Group_30811" data-name="Group 30811"><path id="Path_31360" data-name="Path 31360" class="cls-10" d="M319.77,166.61l-2.74.72-2.74-.72.91-2.76h3.65Z" transform="translate(-122.67 -97.42)"/><path id="Path_31361" data-name="Path 31361" class="cls-2" d="M317,167.78l-.12,0-2.74-.72a.45.45,0,0,1-.32-.55v0l.91-2.76a.45.45,0,0,1,.43-.31h3.65a.45.45,0,0,1,.43.31l.91,2.76a.45.45,0,0,1-.29.57h0l-2.74.72-.12,0Zm-2.16-1.49,2.16.57,2.16-.57-.66-2h-3Z" transform="translate(-122.67 -97.42)"/></g><g id="Group_30812" data-name="Group 30812"><path id="Path_31362" data-name="Path 31362" class="cls-10" d="M319.9,187.22,317.09,191l-2.93-3.79,1.91-17.68h1.86Z" transform="translate(-122.67 -97.42)"/><path id="Path_31363" data-name="Path 31363" class="cls-2" d="M317.09,191.47a.45.45,0,0,1-.35-.17l-2.93-3.8a.45.45,0,0,1-.09-.32l1.91-17.68a.45.45,0,0,1,.45-.4h1.87a.45.45,0,0,1,.45.4l2,17.68a.45.45,0,0,1-.09.32l-2.81,3.79a.45.45,0,0,1-.36.18Zm-2.47-4.37,2.46,3.18,2.35-3.17-1.9-17.1h-1.06Z" transform="translate(-122.67 -97.42)"/></g><g id="Group_30813" data-name="Group 30813"><path id="Path_31364" data-name="Path 31364" class="cls-2" d="M339,191a.45.45,0,0,1-.45-.45h0v-12.3c0-5.54-16.22-14-16.38-14a.45.45,0,0,1,.41-.8h0c.69.36,16.87,8.76,16.87,14.84v12.3A.45.45,0,0,1,339,191Z" transform="translate(-122.67 -97.42)"/></g><g id="Group_30814" data-name="Group 30814"><path id="Path_31365" data-name="Path 31365" class="cls-2" d="M330.67,191a.45.45,0,0,1-.45-.45h0V183a.45.45,0,0,1,.9,0v7.6A.45.45,0,0,1,330.67,191Z" transform="translate(-122.67 -97.42)"/></g><g id="Group_30815" data-name="Group 30815"><path id="Path_31366" data-name="Path 31366" class="cls-2" d="M303.39,191a.45.45,0,0,1-.45-.45v-7.33c-2.39-1.23-19.73-10.27-21.31-15s-1.21-18.78-1.2-19.37a.48.48,0,0,1,.46-.43.45.45,0,0,1,.44.46h0c0,.14-.42,14.32,1.15,19.06,1.23,3.72,14.34,11.19,21.11,14.62a.45.45,0,0,1,.25.4v7.6a.45.45,0,0,1-.44.45Z" transform="translate(-122.67 -97.42)"/></g><g id="Group_30816" data-name="Group 30816"><path id="Path_31367" data-name="Path 31367" class="cls-2" d="M300.69,167.52a12.24,12.24,0,0,1-2.8-.31l-.49-.11c-2.15-.48-5.74-1.3-6.49-3.33-1.09-3-1.66-10.37-1.68-10.69v-6.71a.45.45,0,0,1,.07-.24l2.57-4a.42.42,0,0,1,.07-.15.64.64,0,0,0,.12-.22l1.62-5.9a.64.64,0,0,0-1.23-.34l-.68,2.48a.45.45,0,0,1-.4.33.44.44,0,0,1-.44-.27.41.41,0,0,0-.27-.23.45.45,0,0,1-.33-.43V130a.64.64,0,1,0-1.27,0l-.1,7.3a.45.45,0,0,1-.9,0l-.06-4.88a.64.64,0,1,0-1.27,0l-.07,4.88a.45.45,0,0,1-.9,0l-.09-3.15a.64.64,0,0,0-1.27,0l-.11,3.19a.45.45,0,0,1-.9,0l0-2a.64.64,0,0,0-1.27,0v2a.45.45,0,0,1-.27.41.41.41,0,0,0-.25.38v4.51l1.57,3.48a.44.44,0,0,1,0,.18v2.51a.45.45,0,0,1-.9,0v-2.42L280.7,143a.45.45,0,0,1,0-.18v-4.61a1.31,1.31,0,0,1,.53-1.05v-1.76a1.54,1.54,0,0,1,1.54-1.54,1.52,1.52,0,0,1,.79.22,1.53,1.53,0,0,1,2.3-1.21v-.41a1.54,1.54,0,0,1,2.31-1.32V130a1.53,1.53,0,0,1,3.07,0v6.56l.37-1.36a1.53,1.53,0,0,1,3,.81l-1.62,5.9a1.51,1.51,0,0,1-.2.43.4.4,0,0,1,0,.11l-2.56,4V153s.58,7.58,1.63,10.41c.58,1.58,4.13,2.38,5.84,2.77l.5.11c5.91,1.38,13.3-2.84,13.38-2.88a.45.45,0,1,1,.48.76l0,0c-.26.16-5.74,3.29-11.23,3.29Z" transform="translate(-122.67 -97.42)"/></g><g id="Group_30817" data-name="Group 30817"><path id="Path_31368" data-name="Path 31368" class="cls-2" d="M289.68,149.34h-8.8a.45.45,0,0,1,0-.9h8.8a.45.45,0,0,1,0,.9Z" transform="translate(-122.67 -97.42)"/></g><g id="Group_30818" data-name="Group 30818"><path id="Path_31369" data-name="Path 31369" class="cls-2" d="M283.59,151.57h-.8a.45.45,0,0,1,0-.9h.8a.45.45,0,0,1,0,.9Z" transform="translate(-122.67 -97.42)"/></g></g></g></g></g><g id="Made_In_India" data-name="Made In India" class="cls-11"><text class="cls-12" transform="translate(138.98 12.01)">Made In India</text></g><g id="Group_30822" data-name="Group 30822"><path id="Rectangle_4" data-name="Rectangle 4" class="cls-13" d="M352.17,98.43h17a1.5,1.5,0,0,1,1.5,1.5h0a1.5,1.5,0,0,1-1.5,1.5h-17a1.5,1.5,0,0,1-1.5-1.5h0A1.5,1.5,0,0,1,352.17,98.43Z" transform="translate(-122.67 -97.42)"/><g id="Rectangle_5" data-name="Rectangle 5"><path class="cls-14" d="M352.17,103.43h11a1.5,1.5,0,0,1,1.5,1.5h0a1.5,1.5,0,0,1-1.5,1.5h-11a1.5,1.5,0,0,1-1.5-1.5h0A1.5,1.5,0,0,1,352.17,103.43Z" transform="translate(-122.67 -97.42)"/><rect class="cls-15" x="228.15" y="6.16" width="13.7" height="2.7" rx="1.35" ry="1.35"/></g><path id="Rectangle_6" data-name="Rectangle 6" class="cls-16" d="M352.17,108.43h8a1.5,1.5,0,0,1,1.5,1.5h0a1.5,1.5,0,0,1-1.5,1.5h-8a1.5,1.5,0,0,1-1.5-1.5h0A1.5,1.5,0,0,1,352.17,108.43Z" transform="translate(-122.67 -97.42)"/></g><g id="Group_30823" data-name="Group 30823"><path id="Rectangle_4-2" data-name="Rectangle 4-2" class="cls-13" d="M238.15,98.43h17a1.5,1.5,0,0,1,1.5,1.5h0a1.5,1.5,0,0,1-1.5,1.5h-17a1.5,1.5,0,0,1-1.5-1.5h0A1.5,1.5,0,0,1,238.15,98.43Z" transform="translate(-122.67 -97.42)"/><g id="Rectangle_5-2" data-name="Rectangle 5-2"><path class="cls-14" d="M244.15,103.43h11a1.5,1.5,0,0,1,1.5,1.5h0a1.5,1.5,0,0,1-1.5,1.5h-11a1.5,1.5,0,0,1-1.5-1.5h0A1.5,1.5,0,0,1,244.15,103.43Z" transform="translate(-122.67 -97.42)"/><rect class="cls-15" x="120.13" y="6.16" width="13.7" height="2.7" rx="1.35" ry="1.35"/></g><path id="Rectangle_6-2" data-name="Rectangle 6-2" class="cls-16" d="M247.15,108.43h8a1.5,1.5,0,0,1,1.5,1.5h0a1.5,1.5,0,0,1-1.5,1.5h-8a1.5,1.5,0,0,1-1.5-1.5h0A1.5,1.5,0,0,1,247.15,108.43Z" transform="translate(-122.67 -97.42)"/></g></svg>