<svg id="Layer_1" data-name="Layer 1" xmlns="http://www.w3.org/2000/svg" xmlns:xlink="http://www.w3.org/1999/xlink" width="198.28" height="61.05" viewBox="0 0 198.28 61.05"><defs><style>.cls-1{fill:none;}.cls-2{clip-path:url(#clip-path);}.cls-3{fill:#de6b55;}.cls-4{clip-path:url(#clip-path-2);}.cls-5{fill:#2f52a4;}.cls-6{clip-path:url(#clip-path-3);}.cls-7{clip-path:url(#clip-path-4);}.cls-8{clip-path:url(#clip-path-5);}.cls-9{clip-path:url(#clip-path-6);}.cls-10{clip-path:url(#clip-path-7);}.cls-11{clip-path:url(#clip-path-8);}.cls-12{clip-path:url(#clip-path-9);}.cls-13{clip-path:url(#clip-path-10);}.cls-14{clip-path:url(#clip-path-11);}</style><clipPath id="clip-path" transform="translate(-104.27 -678.2)"><path class="cls-1" d="M201.66,679a30.17,30.17,0,0,0-18.29,8.39l-1.17,1.15,3.39,0,3.39,0,1.46-.95a25.81,25.81,0,0,1,8.74-3.61,19.61,19.61,0,0,1,5-.34,19.61,19.61,0,0,1,5,.34,25.1,25.1,0,0,1,12.06,6.23l1.46,1.39,2.95,0,2.95,0-.77-1a32.51,32.51,0,0,0-2.32-2.61,29.83,29.83,0,0,0-23.82-9Z"/></clipPath><clipPath id="clip-path-2" transform="translate(-104.27 -678.2)"><path class="cls-1" d="M267.55,706.63l0,17h5.84l.09-7.81c.09-8.46.12-8.76.95-10.38,1.68-3.33,6.22-3.85,7.68-.9l.34.7.07,9.2.07,9.2,3,0,3,0-.06-10c0-9.11-.07-10.13-.31-10.9-1.08-3.63-3.46-5.33-7.44-5.34a8.3,8.3,0,0,0-3.8.83,9.29,9.29,0,0,0-3,3l-.47.8V689.67h-6Z"/></clipPath><clipPath id="clip-path-3" transform="translate(-104.27 -678.2)"><polygon class="cls-1" points="295.86 692.69 295.91 695.73 301.74 695.73 301.79 692.69 301.82 689.67 295.83 689.67 295.86 692.69"/></clipPath><clipPath id="clip-path-4" transform="translate(-104.27 -678.2)"><path class="cls-1" d="M254.16,691.67a20.6,20.6,0,0,0-2.25.28s-.17,1.47-.32,3.23-.26,3.2-.26,3.21a15.3,15.3,0,0,1-1.69,0H248v4.67H251v7.21c0,7.87.09,9.06.82,10.51,1.24,2.5,4.28,3.78,7.79,3.3.69-.09,1.55-.23,1.94-.32l.69-.15v-4.6L260.6,719c-2.06-.09-2.85-.41-3.34-1.34-.32-.58-.32-.69-.36-7.56l0-7,2.45,0,2.45,0,0-2.31,0-2.29h-5l0-3.46c0-3-.07-3.47-.26-3.49s-1.19.07-2.41.19Z"/></clipPath><clipPath id="clip-path-5" transform="translate(-104.27 -678.2)"><path class="cls-1" d="M190.24,694.37c0,.19-.06,1.49,0,2.89l0,2.55,7.52.09c8.44.09,8.26.07,9.34,1.15s1.21,1.81,1.2,4.9c0,2.15,0,2.6-.28,3.14a3.73,3.73,0,0,1-1.88,1.87c-.67.32-.85.34-5,.32-2.39,0-4.38,0-4.42.1s3.56,4.64,8,10.19,8.8,11.06,9.72,12.23c1.39,1.77,1.72,2.12,2,2a27.7,27.7,0,0,0,4.16-2.32,31.34,31.34,0,0,0,7.24-6.71l.77-1-3,0-3,0-1.21,1.15a11.81,11.81,0,0,1-3.27,2.5,23.85,23.85,0,0,1-2.79-3.31c-1.4-1.82-2.86-3.72-3.24-4.2-1.69-2.15-2.42-3.07-3.14-3.93s-1.07-1.62-.74-2a3.91,3.91,0,0,1,1.2-.57c3.2-1.05,4.88-3.17,5.36-6.77a36.07,36.07,0,0,0-.26-8.41c-.88-2.85-2.25-4.32-5.22-5.58-.88-.38-2.36-.45-10.39-.51l-8.5-.06Z"/></clipPath><clipPath id="clip-path-6" transform="translate(-104.27 -678.2)"><path class="cls-1" d="M113.61,694.5c-2.9.42-5.39,1.5-6.69,2.89a6.85,6.85,0,0,0-1.88,5.2c0,3,1.45,5.21,4.51,6.82a21.37,21.37,0,0,0,5.79,2c7.62,1.75,10.42,3.47,9.12,5.6a2.59,2.59,0,0,1-1.42,1.18c-1.49.7-2.12.76-10.32.85l-7.73.09v5.11l6.93,0c7.31,0,9.24,0,11.38-.57,4.36-1.07,6.7-3.74,6.71-7.65,0-4.33-3-7.08-9.53-8.63-5.08-1.21-7.23-1.93-8.85-3-1-.64-1.33-1.17-1.33-2,0-1.07,1.06-1.94,2.95-2.45.79-.2,2.07-.25,8.8-.32l7.88-.09,0-2.6,0-2.58-7.76,0c-4.28,0-8.17.07-8.65.15Z"/></clipPath><clipPath id="clip-path-7" transform="translate(-104.27 -678.2)"><path class="cls-1" d="M142.39,694.62c-6.2,1.36-9.28,6.73-9,15.7a20.41,20.41,0,0,0,1,6.28,10.17,10.17,0,0,0,5.12,6.26c2.22,1.1,3.23,1.3,6.39,1.3S150.06,724,152,723l1.05-.51,0,.83,0,.83h5.25V694.41h-5.25l0,.82,0,.83-.76-.42a14.75,14.75,0,0,0-2.07-.8,11.63,11.63,0,0,0-3.94-.44,15.15,15.15,0,0,0-3.91.22Zm6.32,5.4c2.28.89,3.62,2.83,4.17,6a26.44,26.44,0,0,1-.16,7.4c-.88,3.26-2.67,5-5.57,5.43a7.24,7.24,0,0,1-6.17-1.78c-1.28-1.31-1.93-3.08-2.22-6.09a19.64,19.64,0,0,1,.39-6.1c.73-2.76,2.26-4.45,4.61-5.11a11.07,11.07,0,0,1,4.95.2Z"/></clipPath><clipPath id="clip-path-8" transform="translate(-104.27 -678.2)"><path class="cls-1" d="M172.21,694.62a9.84,9.84,0,0,0-5.12,2.61c-2.69,2.52-3.93,6.36-3.93,12.07a19.73,19.73,0,0,0,1.68,8.9,9.93,9.93,0,0,0,7,5.65,13.14,13.14,0,0,0,3.75.32,12.59,12.59,0,0,0,7.11-1.64c.06,0,.12.34.15.8l0,.85,2.6,0,2.58,0V694.34h-5.26v1.72l-1-.5c-1.82-.89-2.87-1.11-5.81-1.17a14,14,0,0,0-3.86.22Zm6.17,5.39c3.18,1.15,4.64,4.47,4.44,10.08-.12,3.43-.73,5.37-2.19,7-1.64,1.78-4.7,2.39-7.56,1.5-3.23-1-4.87-4.7-4.61-10.27.16-3.23.8-5.24,2.17-6.74a6,6,0,0,1,3-1.75,11.24,11.24,0,0,1,4.79.21Z"/></clipPath><clipPath id="clip-path-9" transform="translate(-104.27 -678.2)"><path class="cls-1" d="M227.19,694.62a13.2,13.2,0,0,0-2.7,1,7.63,7.63,0,0,0-2.61,1.88,8.09,8.09,0,0,0-1.93,2.71,21.23,21.23,0,0,0-1.72,10.2c.19,5,1.34,8.36,3.71,10.74a7.28,7.28,0,0,0,2.41,1.72c2.22,1.1,3.22,1.3,6.39,1.3s4.12-.19,6.09-1.12l1.05-.51,0,.83,0,.83h5.25V694.41H238l0,.82,0,.83-.76-.42a14.76,14.76,0,0,0-2.07-.8,11.63,11.63,0,0,0-3.94-.44,15.15,15.15,0,0,0-3.91.22Zm6.32,5.4c2.28.89,3.62,2.83,4.17,6a26.45,26.45,0,0,1-.16,7.4,7.21,7.21,0,0,1-3.63,4.9,7.69,7.69,0,0,1-8.11-1.26c-1.28-1.31-1.93-3.08-2.22-6.09a19.63,19.63,0,0,1,.39-6.1c.73-2.76,2.26-4.45,4.61-5.11a11.07,11.07,0,0,1,4.95.21Z"/></clipPath><clipPath id="clip-path-10" transform="translate(-104.27 -678.2)"><polygon class="cls-1" points="295.86 711.01 295.91 723.61 301.74 723.61 301.79 711.01 301.82 698.43 295.83 698.43 295.86 711.01"/></clipPath><clipPath id="clip-path-11" transform="translate(-104.27 -678.2)"><path class="cls-1" d="M183,729.6a29.19,29.19,0,0,0,8.1,5.82,29.7,29.7,0,0,0,10.8,2.92,13.45,13.45,0,0,0,3.79.07,33.93,33.93,0,0,0,3.68-.5s-.47-1-1.09-2.17l-1.12-2.16-3.28,0a20.56,20.56,0,0,1-4.74-.36,25.76,25.76,0,0,1-9.09-3.85l-1.66-1.12h-6.76Z"/></clipPath></defs><title>logo</title><g id="Group_1" data-name="Group 1"><g class="cls-2"><g id="Group_28510" data-name="Group 28510"><path id="Path_29014" data-name="Path 29014" class="cls-3" d="M181.48,692.44h47.83V678.2H181.48Z" transform="translate(-104.27 -678.2)"/></g></g><g class="cls-4"><g id="Group_28511" data-name="Group 28511"><path id="Path_29016" data-name="Path 29016" class="cls-5" d="M266.79,724.41h22.49V688.94H266.79Z" transform="translate(-104.27 -678.2)"/></g></g><g class="cls-6"><g id="Group_28512" data-name="Group 28512"><path id="Path_29018" data-name="Path 29018" class="cls-5" d="M295.1,696.46h7.44v-7.52H295.1Z" transform="translate(-104.27 -678.2)"/></g></g><g class="cls-7"><g id="Group_28513" data-name="Group 28513"><path id="Path_29020" data-name="Path 29020" class="cls-5" d="M247.23,724.94H263v-34.2H247.23Z" transform="translate(-104.27 -678.2)"/></g></g><g class="cls-8"><g id="Group_28514" data-name="Group 28514"><path id="Path_29022" data-name="Path 29022" class="cls-3" d="M189.46,736.59h39.81V693.3H189.46Z" transform="translate(-104.27 -678.2)"/></g></g><g class="cls-9"><g id="Group_28515" data-name="Group 28515"><path id="Path_29024" data-name="Path 29024" class="cls-5" d="M104.27,725h26.49V693.61H104.27Z" transform="translate(-104.27 -678.2)"/></g></g><g class="cls-10"><g id="Group_28516" data-name="Group 28516"><path id="Path_29026" data-name="Path 29026" class="cls-5" d="M132.68,724.92h26.47V693.66H132.68Z" transform="translate(-104.27 -678.2)"/></g></g><g class="cls-11"><g id="Group_28517" data-name="Group 28517"><path id="Path_29028" data-name="Path 29028" class="cls-5" d="M162.43,725h26.42V693.61H162.43Z" transform="translate(-104.27 -678.2)"/></g></g><g class="cls-12"><g id="Group_28518" data-name="Group 28518"><path id="Path_29030" data-name="Path 29030" class="cls-5" d="M217.47,724.92h26.47V693.66H217.47Z" transform="translate(-104.27 -678.2)"/></g></g><g class="cls-13"><g id="Group_28519" data-name="Group 28519"><path id="Path_29032" data-name="Path 29032" class="cls-5" d="M295.1,724.33h7.44V697.7H295.1Z" transform="translate(-104.27 -678.2)"/></g></g><g class="cls-14"><g id="Group_28520" data-name="Group 28520"><path id="Path_29034" data-name="Path 29034" class="cls-3" d="M180.9,739.25h29.22V727.47H180.9Z" transform="translate(-104.27 -678.2)"/></g></g></g></svg>