<svg id="Layer_1" data-name="Layer 1" xmlns="http://www.w3.org/2000/svg" width="69.18" height="10.75" viewBox="0 0 69.18 10.75"><defs><style>.cls-1{fill:#e84b57;}.cls-2{fill:#404f91;}</style></defs><title>logo-1</title><g id="Decimal_Logo" data-name="Decimal Logo"><path id="Shape" class="cls-1" d="M293.77,186.28h-3.45a6.58,6.58,0,0,1-1.76-.16,5,5,0,0,1-3.73-6A4.72,4.72,0,0,1,289.5,176c3-.11,3,0,6,0,.73,0,.93.34.93,1.21s-.22,1.12-1,1.14c-1.44,0,.07,0-1.38,0s-2.76,0-4.27,0a2.76,2.76,0,0,0-2.85,2.67q0,.11,0,.22a2.76,2.76,0,0,0,2.31,2.69,5.67,5.67,0,0,0,1.07,0h4.85c1,0,1.24.25,1.24,1.21s-.24,1.14-1.09,1.14l-1.56,0" transform="translate(-263.32 -175.76)"/><path id="Shape-2" class="cls-2" d="M307.73,182.32l-2.7-3.13c-.31.29-.2.56-.2.8,0,1.71,0,3.42,0,5.11,0,1-.42,1.29-1.34,1.15-.58-.09-.78-.31-.82-.91v-8.27c0-.44-.11-1,.47-1.18a1.51,1.51,0,0,1,1.65.31,6.62,6.62,0,0,1,.51.6c.67.82,1.38,1.64,2,2.49.29.36.47.36.76,0,.76-.93,1.56-1.87,2.32-2.8a1.65,1.65,0,0,1,1.54-.67c.6.07.8.24.87.84v8.47c0,.84-.29,1.13-1.11,1.13s-1-.27-1.07-1.07V180.3a2,2,0,0,0-.19-1.09c-1,1-1.76,2.11-2.74,3.11" transform="translate(-263.32 -175.76)"/><path id="Shape-3" class="cls-2" d="M326.5,181.16V177a1.13,1.13,0,0,1,1.77-1,.83.83,0,0,1,.43.92v2.69c0,1.55,0,2.44,0,4,0,.47.13.65.63.63.78,0,1.59,0,2.38,0s.76.13.78.74.13,1.48-.72,1.46q-2.08,0-4.17,0c-.9,0-1.08-.22-1.1-1.16,0-1.32,0-2.69,0-4.05" transform="translate(-263.32 -175.76)"/><path id="Shape-4" class="cls-2" d="M298.51,181.17V177c0-.4,0-.85.44-1a1.73,1.73,0,0,1,1.41.07c.33.18.33.54.33.87v8.31a1.15,1.15,0,0,1-1.81,1c-.38-.2-.38-.54-.38-.87Z" transform="translate(-263.32 -175.76)"/><path id="Shape-5" class="cls-1" d="M269.94,179.29a1.86,1.86,0,1,1-1.92,1.79,1.87,1.87,0,0,1,1.92-1.79" transform="translate(-263.32 -175.76)"/><path id="Shape-6" class="cls-2" d="M283.19,177.51v-1a.6.6,0,0,0-.58-.6h-4.22c-1,0-1.18.18-1.18,1.16,0,1.36,0,2.7,0,4.06v4.06c0,1,.2,1.2,1.23,1.2h4.17a.6.6,0,0,0,.6-.6h0v-1a.6.6,0,0,0-.6-.6h-3.19v-1.74a.84.84,0,0,1,0-.25h3.15a.6.6,0,0,0,.6-.6v-1a.6.6,0,0,0-.6-.6h-3.17a.76.76,0,0,1,0-.23c0-.56,0-1.12,0-1.65h3.19a.63.63,0,0,0,.6-.62Z" transform="translate(-263.32 -175.76)"/><path id="Shape-7" class="cls-2" d="M266,175.91h3.44a7.63,7.63,0,0,1,1.76.13,5,5,0,0,1,3.73,6,4.73,4.73,0,0,1-4.67,4.18c-3,.11-3,0-6,0-.71,0-.94-.32-.94-1.19s.22-1.12,1-1.14c1.45,0-.07,0,1.38,0s2.76,0,4.27,0a2.79,2.79,0,0,0,2.85-2.73q0-.09,0-.17a2.76,2.76,0,0,0-2.31-2.7,8.6,8.6,0,0,0-1.09-.07h-4.85c-1,0-1.25-.22-1.25-1.18s.25-1.14,1.09-1.14c1.51,0,.07,0,1.58,0" transform="translate(-263.32 -175.76)"/><path id="Shape-8" class="cls-2" d="M322.32,185.67c-.11-.27-.22-.53-.31-.82a.75.75,0,0,0-.33-.45h-4.14a.63.63,0,0,0-.33.45c-.09.27-.2.56-.31.82-.29.62-.69.82-1.25.67a1.18,1.18,0,0,1-.85-1.18,1.74,1.74,0,0,1,.2-.76l3.47-7.62a1.44,1.44,0,0,1,.6-.76,1,1,0,0,1,.51-.11.83.83,0,0,1,.51.11,1.56,1.56,0,0,1,.6.76l3.49,7.63a2.52,2.52,0,0,1,.22.76,1.17,1.17,0,0,1-.85,1.18,1.33,1.33,0,0,1-.35.05C322.83,186.39,322.55,186.16,322.32,185.67Z" transform="translate(-263.32 -175.76)"/></g></svg>