<svg id="Layer_1" data-name="Layer 1" xmlns="http://www.w3.org/2000/svg" xmlns:xlink="http://www.w3.org/1999/xlink" width="343.57" height="350.05" viewBox="0 0 343.57 350.05"><defs><style>.cls-1{fill:none;}.cls-2{clip-path:url(#clip-path);}.cls-3{fill:#2f52a4;opacity:0.2;isolation:isolate;}</style><clipPath id="clip-path" transform="translate(-121.28 187.28)"><rect class="cls-1" x="139.33" y="18.67" width="191" height="146.97"/></clipPath></defs><title>bg-1</title><g class="cls-2"><g id="Mask_Group_1" data-name="Mask Group 1"><g id="Group_30828" data-name="Group 30828"><g id="Artboard_1" data-name="Artboard 1"><g id="BACKGROUND"><path id="Path_31371" data-name="Path 31371" class="cls-3" d="M159.22-120l-4,3.24a16.71,16.71,0,0,0-2.42,23.51h0L201.23-33.6a16.7,16.7,0,0,1-2.44,23.49h0l-4,3.25A16.69,16.69,0,0,1,171.3-9.28v0L155-29.39a16.71,16.71,0,0,0-23.5-2.44l-4,3.25A16.7,16.7,0,0,0,125-5.09h0L256.26,156.6A16.69,16.69,0,0,0,279.74,159h0l4-3.25a16.71,16.71,0,0,0,2.44-23.5L247.38,84.49A16.7,16.7,0,0,1,249.82,61h0l4-3.25a16.71,16.71,0,0,1,23.5,2.45l0,0,70.87,87.31A16.7,16.7,0,0,0,371.71,150h0l4-3.25a16.72,16.72,0,0,0,2.44-23.5l-15.45-19a16.7,16.7,0,0,1,2.44-23.49h0l4-3.25a16.71,16.71,0,0,1,23.51,2.4l0,.05L419,112.31a16.71,16.71,0,0,0,23.49,2.44l4-3.25A16.69,16.69,0,0,0,449,88l0,0L377-.62a16.71,16.71,0,0,1,2.38-23.51h0l4-3.25A16.71,16.71,0,0,1,406.93-25L431.14,4.87a16.7,16.7,0,0,0,23.49,2.44h0l4-3.25a16.7,16.7,0,0,0,2.5-23.48h0L329.86-181.1a16.7,16.7,0,0,0-23.49-2.44h0l-4,3.25a16.7,16.7,0,0,0-2.45,23.49h0L321.69-130a16.71,16.71,0,0,1-2.45,23.49l-4,3.25a16.71,16.71,0,0,1-23.5-2.44l-41.06-50.58a16.71,16.71,0,0,0-23.51-2.43h0l-4,3.25a16.7,16.7,0,0,0-2.44,23.49h0l49.85,61.36a16.71,16.71,0,0,1-2.44,23.49l-4,3.25a16.7,16.7,0,0,1-23.49-2.44h0l-57.91-71.33A16.7,16.7,0,0,0,159.24-120l0,0Z" transform="translate(-121.28 187.28)"/></g></g></g></g></g></svg>