<svg xmlns="http://www.w3.org/2000/svg" width="29.934" height="27.99" viewBox="0 0 29.934 27.99">
    <g transform="translate(-281.066 -459.501)">
        <circle cx="9.5" cy="9.5" r="9.5" fill="#58cb7d" transform="translate(292 468)"/>
        <path fill="none" stroke="#fff" stroke-linecap="square" stroke-miterlimit="10" stroke-width="1.4px" d="M0 1.951L1.925 4.5 7.708 0" transform="translate(298.813 474.858)"/>
        <g>
            <g>
                <path fill="#ffdfba" d="M96.605 25.139v2.368a.482.482 0 0 1-.483.483H78.511a.482.482 0 0 1-.483-.483v-2.368a4.5 4.5 0 0 1 4.5-4.5 2.5 2.5 0 0 0 2.1-1.138 2.835 2.835 0 0 0 .4-1.768l.009-.022a5.972 5.972 0 0 1-3.688-5.519v-.189a1.488 1.488 0 0 1-1.508-1.48V8.019a8.349 8.349 0 0 1 2.244-6.094c2.581-2.491 6.678-2.287 9.646-.954a.121.121 0 0 1 0 .222l-.774.318a.121.121 0 0 0 .033.232l.376.04a6.088 6.088 0 0 1 4.507 2.8.13.13 0 0 1-.016.149 3.649 3.649 0 0 0-1 2.507v3.291a1.48 1.48 0 0 1-1.48 1.48h-.088v.189a5.972 5.972 0 0 1-3.689 5.515l.009.022a2.834 2.834 0 0 0 .4 1.768 2.5 2.5 0 0 0 2.1 1.138 4.5 4.5 0 0 1 4.5 4.5z" transform="translate(8 58) translate(273.066 401.501) translate(-78.028)"/>
                <path fill="#074089" d="M96.605 329v2.368a.483.483 0 0 1-.483.483H78.511a.483.483 0 0 1-.483-.483V329a4.5 4.5 0 0 1 4.5-4.5 2.5 2.5 0 0 0 2.1-1.138 4.14 4.14 0 0 0 5.386 0 2.5 2.5 0 0 0 2.1 1.138 4.5 4.5 0 0 1 4.491 4.5z" transform="translate(8 58) translate(273.066 401.501) translate(-78.028 -303.862)"/>
                <path fill="#42434d" d="M124.02 4.58a.128.128 0 0 1-.016.148 3.651 3.651 0 0 0-1 2.507v3.291a1.483 1.483 0 0 1-1.568 1.48V8.281a2.9 2.9 0 0 0-2.9-2.9h-6.152a2.9 2.9 0 0 0-2.9 2.9v3.726a1.488 1.488 0 0 1-1.508-1.48V8.02a8.349 8.349 0 0 1 2.244-6.094c2.585-2.492 6.682-2.288 9.649-.955a.121.121 0 0 1 0 .222l-.774.319a.121.121 0 0 0 .033.231l.376.04a6.085 6.085 0 0 1 4.516 2.797z" transform="translate(8 58) translate(273.066 401.501) translate(-106.18)"/>
                <path fill="#ffebd2" d="M144.971 96.1a5.973 5.973 0 1 1-11.943-.189v-3.73a2.9 2.9 0 0 1 2.9-2.9h6.152a2.9 2.9 0 0 1 2.9 2.9z" transform="translate(8 58) translate(273.066 401.501) translate(-129.711 -83.901)"/>
                <path fill="#fff" d="M282.958 432.021h-1.448a.483.483 0 0 1 0-.965h1.448a.483.483 0 0 1 0 .965z" transform="translate(8 58) translate(273.066 401.501) translate(-268.784 -405.056)"/>
                <path fill="#fff3e4" d="M137.647 114.66a.953.953 0 0 1-.867 1.689 5.972 5.972 0 0 1-3.752-5.545v-3.914a2.883 2.883 0 0 1 .508-1.639.713.713 0 0 1 1.3.432v3.917a5.928 5.928 0 0 0 2.811 5.06z" transform="translate(8 58) translate(273.066 401.501) translate(-129.711 -98.609)"/>
                <path fill="#ffd6a6" d="M197.618 294.7a5.988 5.988 0 0 1-4.72 0 3.738 3.738 0 0 0 .068-.99l.009-.022a5.984 5.984 0 0 0 4.566 0l.009.022a3.738 3.738 0 0 0 .068.99z" transform="translate(8 58) translate(273.066 401.501) translate(-185.969 -275.972)"/>
                <path fill="#115dbe" d="M84.957 325.961a2.453 2.453 0 0 1-.719.111 4.511 4.511 0 0 0-4.522 4.482v.453a.844.844 0 0 1-.844.844h-.362a.483.483 0 0 1-.483-.483V329a4.5 4.5 0 0 1 4.5-4.5 2.5 2.5 0 0 0 2.1-1.138 4.173 4.173 0 0 0 .574.411 1.2 1.2 0 0 1-.244 2.188z" transform="translate(8 58) translate(273.066 401.501) translate(-78.028 -303.862)"/>
                <path fill="#00285c" d="M258.192 325.961a2.453 2.453 0 0 0 .719.111 4.51 4.51 0 0 1 4.522 4.482v.453a.844.844 0 0 0 .844.844h.362a.483.483 0 0 0 .483-.483V329a4.5 4.5 0 0 0-4.5-4.5 2.5 2.5 0 0 1-2.1-1.138 4.171 4.171 0 0 1-.574.411 1.2 1.2 0 0 0 .244 2.188z" transform="translate(8 58) translate(273.066 401.501) translate(-246.544 -303.862)"/>
                <path fill="#4d4e59" d="M119.879 1.193c-.709.292-.81.356-1.056.318-3.961-.614-7.437 1.025-8.617 4.873a2.881 2.881 0 0 0-.708 1.9v2.263a.754.754 0 1 1-1.508-.018v-2.51a8.349 8.349 0 0 1 2.244-6.094c2.585-2.492 6.682-2.288 9.649-.955a.121.121 0 0 1 0 .222z" transform="translate(8 58) translate(273.066 401.501) translate(-106.18)"/>
            </g>
        </g>
    </g>
</svg>
