<svg xmlns="http://www.w3.org/2000/svg" width="16" height="21.565" viewBox="0 0 16 21.565">
    <g id="prefix__noun_Document_3106631" transform="translate(-5 -2.999)">
        <path id="prefix__Path_28165" fill="#00bdf5" d="M7.781 2.391A1.4 1.4 0 0 1 9.179 1h6.95v4.175a1.389 1.389 0 0 0 1.4 1.39H21v11.828a1.387 1.387 0 0 1-1.389 1.389 1.4 1.4 0 0 1-1.391 1.391 1.4 1.4 0 0 1-1.391 1.391H6.389A1.391 1.391 0 0 1 5 21.169V5.179a1.392 1.392 0 0 1 1.389-1.4 1.394 1.394 0 0 1 1.392-1.387zm-1.39 17.387v-15.3a.7.7 0 0 0-.7.692v16.007a.7.7 0 0 0 .7.692h10.435a.7.7 0 0 0 .7-.692H7.785a1.391 1.391 0 0 1-1.389-1.4zm.7-16v16.007a.7.7 0 0 0 .7.692h10.426a.7.7 0 0 0 .7-.692H9.176a1.391 1.391 0 0 1-1.389-1.4V3.086a.7.7 0 0 0-.7.692zM16.826 1v4.172a.7.7 0 0 0 .689.7H21z" data-name="Path 28165" transform="translate(0 1.999)"/>
    </g>
</svg>
