<svg xmlns="http://www.w3.org/2000/svg" width="24" height="24" viewBox="0 0 24 24">
    <defs>
        <style>
            .prefix__cls-2{fill:#00bdf5}
        </style>
    </defs>
    <g id="prefix__Group_27737" data-name="Group 27737" transform="translate(-26 -380)">
        <g id="prefix__Group_27613" data-name="Group 27613" transform="translate(27 386.001)">
            <path id="prefix__Path_28084" d="M16.655 13.71c-1.252.572-2.455 1.125-3.661 1.668a.373.373 0 0 0-.246.3 3.385 3.385 0 0 0-.082.811 1.591 1.591 0 0 0 1.523 1.522 3.683 3.683 0 0 0 1.754-.309c.677-.281 1.332-.605 1.983-.941a.191.191 0 0 1 .262.033q2.305 2.158 4.612 4.306a.7.7 0 0 1 .208.862.9.9 0 0 1-.8.592.359.359 0 0 1-.287-.119c-.508-.506-1.021-1.008-1.532-1.51-.061-.06-.124-.119-.184-.179-.08-.08-.172-.124-.266-.037s-.056.195.032.281c.545.535 1.083 1.079 1.639 1.6a.505.505 0 0 1 .166.533.872.872 0 0 1-.811.8.557.557 0 0 1-.459-.173c-.566-.57-1.141-1.131-1.714-1.694a1.747 1.747 0 0 0-.138-.126.152.152 0 0 0-.212 0 .161.161 0 0 0-.017.231 1.193 1.193 0 0 0 .13.134c.511.5 1.013 1.016 1.538 1.5a.533.533 0 0 1 .157.6.609.609 0 0 1-.5.472 1.03 1.03 0 0 1-.969-.269c-.57-.577-1.153-1.14-1.731-1.709-.08-.079-.17-.165-.28-.063s-.062.209.035.3c.046.042.088.088.133.132.5.492.994.991 1.507 1.47a.332.332 0 0 1 .094.426.794.794 0 0 1-1.172.468c-.084-.04-.164-.09-.246-.135-.2-.112-.259-.225-.15-.475a1.363 1.363 0 0 0-.949-1.811.319.319 0 0 1-.273-.273 1.326 1.326 0 0 0-1.06-1 .213.213 0 0 1-.193-.184 1.354 1.354 0 0 0-1.062-1.044.21.21 0 0 1-.181-.171 1.316 1.316 0 0 0-1.061-.973 1.348 1.348 0 0 0-1.4.54c-.207.264-.414.527-.607.8-.064.09-.107.109-.2.056-.239-.13-.481-.257-.726-.373-.12-.057-.128-.126-.089-.241q.859-2.556 1.706-5.116c.052-.159.127-.182.268-.159a2.373 2.373 0 0 0 1.472-.254c.851-.422 1.713-.82 2.577-1.216a1.668 1.668 0 0 1 1.462.117z" class="prefix__cls-2" data-name="Path 28084" transform="translate(-6.073 -13.412)"/>
            <path id="prefix__Path_28085" d="M26.956 13.3a2.356 2.356 0 0 1 1.484.466c.268.2.53.41.793.616a2.755 2.755 0 0 0 1.729.607c.147 0 .2.051.229.186q.561 2.362 1.135 4.722c.038.156 0 .2-.147.226q-.536.116-1.065.264a.265.265 0 0 1-.289-.075Q28.556 18.2 26.283 16.1a.259.259 0 0 0-.358-.049 23.017 23.017 0 0 1-2.4 1.139 2.84 2.84 0 0 1-1.258.2 1.117 1.117 0 0 1-1.114-1.338.5.5 0 0 1 .332-.464c1.528-.682 3.047-1.383 4.57-2.076a2.117 2.117 0 0 1 .901-.212z" class="prefix__cls-2" data-name="Path 28085" transform="translate(-14.039 -13.296)"/>
            <path id="prefix__Path_28086" d="M2.1 14.491c.109.034.235.071.36.113q.852.283 1.7.568c.3.1.356.213.257.51Q3.566 18.26 2.7 20.837c-.094.281-.211.338-.5.243q-.963-.318-1.925-.644c-.274-.093-.331-.2-.241-.477q.863-2.6 1.729-5.2a.341.341 0 0 1 .337-.268z" class="prefix__cls-2" data-name="Path 28086" transform="translate(-.001 -14.09)"/>
            <path id="prefix__Path_28087" d="M52.2 16.381a.322.322 0 0 1 .264-.372q1.019-.249 2.041-.485c.252-.058.377.035.445.315q.43 1.78.857 3.561c.113.469.226.937.336 1.406.062.264-.017.4-.279.466q-.974.24-1.95.469c-.307.072-.43-.006-.5-.314q-.595-2.461-1.187-4.923c-.017-.053-.027-.104-.027-.123z" class="prefix__cls-2" data-name="Path 28087" transform="translate(-34.667 -14.765)"/>
            <path id="prefix__Path_28088" d="M17.042 37.706a.92.92 0 0 1-1.146.023c-.34-.273-.406-.6-.227-1.178a.9.9 0 0 1-1.323-1.082.948.948 0 0 1-.989-.15.884.884 0 0 1-.109-1.2q.266-.355.54-.7a.886.886 0 0 1 1.578.755.477.477 0 0 0 0 .085.892.892 0 0 1 1.044.225.918.918 0 0 1 .088 1.083.888.888 0 0 1 1.147.119.909.909 0 0 1 .1 1.145.911.911 0 0 1 1.129.08.881.881 0 0 1 .118 1.168c-.128.176-.266.346-.4.518a.883.883 0 0 1-1.562-.797.943.943 0 0 0 .012-.094z" class="prefix__cls-2" data-name="Path 28088" transform="translate(-8.675 -26.4)"/>
        </g>
    </g>
</svg>
