<svg xmlns="http://www.w3.org/2000/svg" width="24" height="24" viewBox="0 0 24 24">
    <g id="prefix__Group_27740" data-name="Group 27740" transform="translate(-26 -444)">
        <g id="prefix__noun_Document_1212460" transform="translate(16.5 440.5)">
            <path id="prefix__Path_28089" fill="#00bdf5" d="M27.719 7.86h-.354a2.486 2.486 0 0 0-2.477-2.36h-7.575a.591.591 0 0 0-.425.189l-4.223 4.294a.553.553 0 0 0-.165.4v10.808a2.486 2.486 0 0 0 2.36 2.478v.354a2.477 2.477 0 0 0 2.477 2.477h10.382a2.477 2.477 0 0 0 2.481-2.478V10.337a2.477 2.477 0 0 0-2.481-2.477zm-3.893 8.848a.584.584 0 0 1-.59.59h-6.607a.59.59 0 1 1 0-1.18h6.607a.584.584 0 0 1 .59.59zm0 2.831a.584.584 0 0 1-.59.59h-6.607a.59.59 0 1 1 0-1.18h6.607a.584.584 0 0 1 .59.59zm-4.837-6.253a.59.59 0 1 1 0 1.18h-2.36a.59.59 0 1 1 0-1.18zm-4.672-3.3l2.43-2.478v2.121a.363.363 0 0 1-.354.354zm14.7 14.039a1.309 1.309 0 0 1-1.3 1.3h-10.38a1.309 1.309 0 0 1-1.3-1.3v-.354h8.848a2.477 2.477 0 0 0 2.478-2.478V9.039h.354a1.309 1.309 0 0 1 1.3 1.3z" data-name="Path 28089"/>
            <path id="prefix__Path_28090" fill="#fff" d="M226.444 176.622a.293.293 0 1 0 0-.586h-2.38a.293.293 0 0 0 0 .586h.68a.719.719 0 0 1 .665.44h-1.349a.293.293 0 0 0 0 .586h1.348a1.1 1.1 0 0 1-.152.208.712.712 0 0 1-.516.2h-.68a.3.3 0 0 0-.2.516l1.7 1.609a.3.3 0 0 0 .2.082.292.292 0 0 0 .2-.5l-1.167-1.1a1.306 1.306 0 0 0 1.225-1.008h.416a.293.293 0 0 0 0-.586h-.419a1.075 1.075 0 0 0-.188-.44h.61zm0 0" data-name="Path 28090" transform="translate(-201.789 -168.598)"/>
        </g>
    </g>
</svg>
