<svg xmlns="http://www.w3.org/2000/svg" width="24" height="24" viewBox="0 0 24 24">
    <defs>
        <style>
            .prefix__cls-2{fill:#00bdf5}
        </style>
    </defs>
    <g id="prefix__Group_28569" data-name="Group 28569" transform="translate(-26 -572)">
        <g id="prefix__noun_detail_2364375" transform="translate(26.401 574)">
            <path id="prefix__Path_28099" d="M56.468 10.936A1.468 1.468 0 1 0 55 9.468a1.468 1.468 0 0 0 1.468 1.468z" class="prefix__cls-2" data-name="Path 28099" transform="translate(-45.367 -6.695)"/>
            <path id="prefix__Path_28100" d="M51.575 30h-2.386a1.3 1.3 0 0 0-1.261.973l-.2.658h.681l.147-.484a.651.651 0 0 1 .633-.494h2.386a.657.657 0 0 1 .637.51l.142.469h.681l-.195-.642a1.3 1.3 0 0 0-1.265-.99z" class="prefix__cls-2" data-name="Path 28100" transform="translate(-39.281 -25.107)"/>
            <path id="prefix__Path_28101" d="M33 19.245V1.631A1.634 1.634 0 0 0 31.373 0h-9.948a.653.653 0 0 0-.462.191l-2.772 2.772a.653.653 0 0 0-.191.462v15.82a1.634 1.634 0 0 0 1.631 1.631h11.742A1.634 1.634 0 0 0 33 19.245zM21.425.652v1.794a.979.979 0 0 1-.979.979h-1.794zm-2.773 6.524v-3.1h1.794a1.633 1.633 0 0 0 1.631-1.631V.652h9.3a.979.979 0 0 1 .979.979v5.545zm11.172 12.069H21.18a.326.326 0 1 1 0-.652h8.644a.326.326 0 0 1 0 .652zm0-1.631H21.18a.326.326 0 1 1 0-.652h8.644a.326.326 0 0 1 0 .652zm0-1.631H21.18a.326.326 0 1 1 0-.652h8.644a.326.326 0 0 1 0 .652zm0-1.631H21.18a.326.326 0 1 1 0-.652h8.644a.326.326 0 0 1 0 .652zm0-1.631H21.18a.326.326 0 1 1 0-.652h8.644a.326.326 0 0 1 0 .652zm0-1.631H21.18a.326.326 0 1 1 0-.652h8.644a.326.326 0 0 1 0 .652zm0-1.631H21.18a.326.326 0 1 1 0-.652h8.644a.326.326 0 0 1 0 .652z" class="prefix__cls-2" data-name="Path 28101" transform="translate(-14.401)"/>
        </g>
    </g>
</svg>
