<svg xmlns="http://www.w3.org/2000/svg" width="35.37" height="28.389" viewBox="0 0 35.37 28.389">
    <defs>
        <style>
            .cls-2{fill:#f06a6a}
        </style>
    </defs>
    <g id="Group_30986" transform="translate(-273.066 -401.501)">
        <g id="Group_30985" transform="translate(287.013 411.22)">
            <text id="Female" fill="#f06a6a" font-family="Roboto-Bold, Roboto" font-size="11px" font-weight="700" transform="translate(7.987 12.78)">
                <tspan x="0" y="0">!</tspan>
            </text>
            <g id="rotate" transform="rotate(32 9.008 9.003)">
                <g id="Group_30965" transform="translate(1.408)">
                    <g id="Group_30964">
                        <g id="Group_30963">
                            <path id="Path_32268" d="M53.973 2.772a9.016 9.016 0 0 0-10.541-1.618A9.059 9.059 0 0 0 41.408 2.6V.133H40V5.06h4.927V3.653h-2.581A7.6 7.6 0 0 1 55.2 9.143c0 .233-.011.469-.032.7l1.4.128c.025-.273.037-.551.037-.827a8.951 8.951 0 0 0-2.632-6.372z" class="cls-2" transform="translate(-40 -.133)"/>
                        </g>
                    </g>
                </g>
                <g id="Group_30967" transform="translate(1.991 13.777)">
                    <g id="Group_30966">
                        <path id="Path_32270" d="M57.675 391.566l-1.1.883a9.085 9.085 0 0 0 1.053 1.1l.932-1.055a7.669 7.669 0 0 1-.885-.928z" class="cls-2" transform="translate(-56.579 -391.566)"/>
                    </g>
                </g>
                <g id="Group_30969" transform="translate(.51 11.537)">
                    <g id="Group_30968">
                        <path id="Path_32271" d="M15.82 327.943l-1.328.468a9 9 0 0 0 .628 1.391l1.229-.686a7.582 7.582 0 0 1-.529-1.173z" class="cls-2" transform="translate(-14.492 -327.943)"/>
                    </g>
                </g>
                <g id="Group_30971" transform="translate(0 9.01)">
                    <g id="Group_30970">
                        <path id="Path_32272" d="M1.408 256.133H0a9.1 9.1 0 0 0 .128 1.518l1.388-.236a7.679 7.679 0 0 1-.108-1.282z" class="cls-2" transform="translate(0 -256.133)"/>
                    </g>
                </g>
                <g id="Group_30973" transform="translate(4.267 15.476)">
                    <g id="Group_30972">
                        <path id="Path_32273" d="M121.99 439.841l-.742 1.2a9.009 9.009 0 0 0 1.359.691l.529-1.3a7.593 7.593 0 0 1-1.146-.591z" class="cls-2" transform="translate(-121.248 -439.841)"/>
                    </g>
                </g>
                <g id="Group_30975" transform="translate(15.92 10.976)">
                    <g id="Group_30974">
                        <path id="Path_32274" d="M452.758 311.981a7.576 7.576 0 0 1-.436 1.21l1.279.589a8.983 8.983 0 0 0 .518-1.435z" class="cls-2" transform="translate(-452.322 -311.981)"/>
                    </g>
                </g>
                <g id="Group_30977" transform="translate(12.401 15.146)">
                    <g id="Group_30976">
                        <path id="Path_32275" d="M353.44 430.468a7.626 7.626 0 0 1-1.1.67l.629 1.26a9.034 9.034 0 0 0 1.3-.794z" class="cls-2" transform="translate(-352.341 -430.468)"/>
                    </g>
                </g>
                <g id="Group_30979" transform="translate(14.47 13.303)">
                    <g id="Group_30978">
                        <path id="Path_32276" d="M411.945 378.123a7.671 7.671 0 0 1-.815 1l1.011.98a9.08 9.08 0 0 0 .965-1.18z" class="cls-2" transform="translate(-411.13 -378.123)"/>
                    </g>
                </g>
                <g id="Group_30981" transform="translate(9.947 16.291)">
                    <g id="Group_30980">
                        <path id="Path_32277" d="M283.872 462.995a7.579 7.579 0 0 1-1.258.264l.172 1.4a8.994 8.994 0 0 0 1.493-.314z" class="cls-2" transform="translate(-282.614 -462.995)"/>
                    </g>
                </g>
                <g id="Group_30983" transform="translate(7.084 16.438)">
                    <g id="Group_30982">
                        <path id="Path_32278" d="M201.58 467.185l-.3 1.376a9.039 9.039 0 0 0 1.512.2l.064-1.406a7.637 7.637 0 0 1-1.276-.17z" class="cls-2" transform="translate(-201.28 -467.185)"/>
                    </g>
                </g>
            </g>
        </g>
        <g id="man_1_" transform="translate(273.066 401.501)">
            <path id="Path_32279" fill="#ffdfba" d="M96.605 25.139v2.368a.482.482 0 0 1-.483.483H78.511a.482.482 0 0 1-.483-.483v-2.368a4.5 4.5 0 0 1 4.5-4.5 2.5 2.5 0 0 0 2.1-1.138 2.835 2.835 0 0 0 .4-1.768l.009-.022a5.972 5.972 0 0 1-3.688-5.519v-.189a1.488 1.488 0 0 1-1.508-1.48V8.019a8.349 8.349 0 0 1 2.244-6.094c2.581-2.491 6.678-2.287 9.646-.954a.121.121 0 0 1 0 .222l-.774.318a.121.121 0 0 0 .033.232l.376.04a6.088 6.088 0 0 1 4.507 2.8.13.13 0 0 1-.016.149 3.649 3.649 0 0 0-1 2.507v3.291a1.48 1.48 0 0 1-1.48 1.48h-.088v.189a5.972 5.972 0 0 1-3.689 5.515l.009.022a2.834 2.834 0 0 0 .4 1.768 2.5 2.5 0 0 0 2.1 1.138 4.5 4.5 0 0 1 4.5 4.5z" transform="translate(-78.028)"/>
            <path id="Path_32280" fill="#074089" d="M96.605 329v2.368a.483.483 0 0 1-.483.483H78.511a.483.483 0 0 1-.483-.483V329a4.5 4.5 0 0 1 4.5-4.5 2.5 2.5 0 0 0 2.1-1.138 4.14 4.14 0 0 0 5.386 0 2.5 2.5 0 0 0 2.1 1.138 4.5 4.5 0 0 1 4.491 4.5z" transform="translate(-78.028 -303.862)"/>
            <path id="Path_32281" fill="#42434d" d="M124.02 4.58a.128.128 0 0 1-.016.148 3.651 3.651 0 0 0-1 2.507v3.291a1.483 1.483 0 0 1-1.568 1.48V8.281a2.9 2.9 0 0 0-2.9-2.9h-6.152a2.9 2.9 0 0 0-2.9 2.9v3.726a1.488 1.488 0 0 1-1.508-1.48V8.02a8.349 8.349 0 0 1 2.244-6.094c2.585-2.492 6.682-2.288 9.649-.955a.121.121 0 0 1 0 .222l-.774.319a.121.121 0 0 0 .033.231l.376.04a6.085 6.085 0 0 1 4.516 2.797z" transform="translate(-106.18)"/>
            <path id="Path_32282" fill="#ffebd2" d="M144.971 96.1a5.973 5.973 0 1 1-11.943-.189v-3.73a2.9 2.9 0 0 1 2.9-2.9h6.152a2.9 2.9 0 0 1 2.9 2.9z" transform="translate(-129.711 -83.901)"/>
            <path id="Path_32283" fill="#fff" d="M282.958 432.021h-1.448a.483.483 0 0 1 0-.965h1.448a.483.483 0 0 1 0 .965z" transform="translate(-268.784 -405.056)"/>
            <path id="Path_32284" fill="#fff3e4" d="M137.647 114.66a.953.953 0 0 1-.867 1.689 5.972 5.972 0 0 1-3.752-5.545v-3.914a2.883 2.883 0 0 1 .508-1.639.713.713 0 0 1 1.3.432v3.917a5.928 5.928 0 0 0 2.811 5.06z" transform="translate(-129.711 -98.609)"/>
            <path id="Path_32285" fill="#ffd6a6" d="M197.618 294.7a5.988 5.988 0 0 1-4.72 0 3.738 3.738 0 0 0 .068-.99l.009-.022a5.984 5.984 0 0 0 4.566 0l.009.022a3.738 3.738 0 0 0 .068.99z" transform="translate(-185.969 -275.972)"/>
            <path id="Path_32286" fill="#115dbe" d="M84.957 325.961a2.453 2.453 0 0 1-.719.111 4.511 4.511 0 0 0-4.522 4.482v.453a.844.844 0 0 1-.844.844h-.362a.483.483 0 0 1-.483-.483V329a4.5 4.5 0 0 1 4.5-4.5 2.5 2.5 0 0 0 2.1-1.138 4.173 4.173 0 0 0 .574.411 1.2 1.2 0 0 1-.244 2.188z" transform="translate(-78.028 -303.862)"/>
            <path id="Path_32287" fill="#00285c" d="M258.192 325.961a2.453 2.453 0 0 0 .719.111 4.51 4.51 0 0 1 4.522 4.482v.453a.844.844 0 0 0 .844.844h.362a.483.483 0 0 0 .483-.483V329a4.5 4.5 0 0 0-4.5-4.5 2.5 2.5 0 0 1-2.1-1.138 4.171 4.171 0 0 1-.574.411 1.2 1.2 0 0 0 .244 2.188z" transform="translate(-246.544 -303.862)"/>
            <path id="Path_32288" fill="#4d4e59" d="M119.879 1.193c-.709.292-.81.356-1.056.318-3.961-.614-7.437 1.025-8.617 4.873a2.881 2.881 0 0 0-.708 1.9v2.263a.754.754 0 1 1-1.508-.018v-2.51a8.349 8.349 0 0 1 2.244-6.094c2.585-2.492 6.682-2.288 9.649-.955a.121.121 0 0 1 0 .222z" transform="translate(-106.18)"/>
        </g>
    </g>
</svg>
