<svg xmlns="http://www.w3.org/2000/svg" width="26.658" height="19.18" viewBox="0 0 26.658 19.18">
    <g>
        <path fill="#074089" fill-rule="evenodd" d="M20.389.453a4.153 4.153 0 0 1 2.152 1.359L24.2 4.946l2.53.34c.3.038.378 1.775.113 1.775h-1.471c.264.264 1.473 1.095 1.51 4 .038 2.454.038 4.871.038 7.325a.824.824 0 0 1-.793.793H23.67v-1.773a196.513 196.513 0 0 1-20.01 0v1.774H1.246a.8.8 0 0 1-.793-.793v-7.324C.491 8.155 1.737 7.325 2 7.06H.529C.227 7.06.34 5.324.6 5.286l2.53-.34 1.7-3.134A4 4 0 0 1 6.947.453a50.071 50.071 0 0 1 13.442 0zm-2.53 12.875a.429.429 0 0 0-.415-.453H9.93a.436.436 0 0 0-.453.453 51.774 51.774 0 0 0 8.382 0zm-.415-1.246a.453.453 0 0 0 .415-.453c0-.264-8.382-.264-8.382 0a.459.459 0 0 0 .453.453zm5.4-6.456c-.491-.982-.944-1.926-1.435-2.87a1.808 1.808 0 0 0-1.133-.793 54.946 54.946 0 0 0-13.177 0 1.719 1.719 0 0 0-1.133.793c-.491.944-.982 1.888-1.473 2.87zM2.454 11.1h2.832l1.133 2.756H2.454zm22.427 0h-2.793l-1.17 2.756h3.964z" transform="translate(-.348)"/>
    </g>
</svg>
