<svg xmlns="http://www.w3.org/2000/svg" width="24.155" height="20.532" viewBox="0 0 24.155 20.532">
    <defs>
        <style>
            .cls-1{fill:#074089}.cls-2{fill:none;stroke:#074089;stroke-width:.5px}
        </style>
    </defs>
    <g id="Group_28480" transform="translate(-38.267 -460.714)">
        <g id="Group_28475" transform="translate(31 447.361)">
            <path id="Path_29000" d="M12.038 57.456l5.973 3.376v-2.321l-4.6-2.537z" class="cls-1" transform="translate(-3.755 -26.947)"/>
            <path id="Path_29001" d="M32.1 26.136l-3.982-2.457-2.538 2.747-3.38 3.661-.035.034-1.628 1.764-3.548 3.841 4.354 2.4 9.034-10.066z" class="cls-1" transform="translate(-6.761 -7.318)"/>
            <path id="Path_29002" d="M35.592 38.592L37 37.066l4.747-5.131-1.432-.882-10.968 12.226v2.064l5.737-6.2z" class="cls-1" transform="translate(-14.276 -11.8)"/>
            <path id="Path_29003" d="M25.26 29.613l2.368-2.562-2.819-2-2.951 2.978 2.942 2.08z" class="cls-1" transform="translate(-9.724 -8.153)"/>
            <path id="Path_29004" d="M21.591 36.237l-2.965-2.092-1.126 1.138 2.994 2.144z" class="cls-1" transform="translate(-7.073 -13.679)"/>
            <path id="Path_29005" d="M60.468 52.263l-1.8 2.05.559 2.687 4.294-4.569-1.971-1.4z" class="cls-1" transform="translate(-32.098 -23.943)"/>
            <path id="Path_29006" d="M44.406 52.356l-1.143 1.237 5.748 4.119-.511-2.468z" class="cls-1" transform="translate(-22.734 -24.748)"/>
            <path id="Path_29007" d="M47.6 46.1l.292.206 3.544 2.5 1.915-2.184.8-.914-3.737-2.652-1.97 2.129z" class="cls-1" transform="translate(-25.371 -19.097)"/>
        </g>
        <g id="Group_28476" transform="rotate(35.02 58.443 452.775)">
            <path id="Path_29011" d="M4694.935 12110.854v-2.01" class="cls-2" transform="translate(-4631.876 -11648.001)"/>
            <path id="Path_29012" d="M.285 2.016L.31 0" class="cls-2" transform="rotate(20 -1275.276 417.541)"/>
            <path id="Path_29013" d="M.167 2.026L.142.01" class="cls-2" transform="rotate(-20 1338.531 61.208)"/>
        </g>
        <g id="Group_28477" transform="rotate(-44.03 54.395 490.026)">
            <path id="Path_29011-2" d="M4694.935 12110.854v-2.01" class="cls-2" transform="translate(-4631.876 -11648.001)"/>
            <path id="Path_29012-2" d="M.285 2.016L.31 0" class="cls-2" transform="rotate(20 -1275.276 417.541)"/>
            <path id="Path_29013-2" d="M.167 2.026L.142.01" class="cls-2" transform="rotate(-20 1338.531 61.208)"/>
        </g>
    </g>
</svg>
