<svg xmlns="http://www.w3.org/2000/svg" width="30.501" height="30.296" viewBox="0 0 30.501 30.296">
    <defs>
        <style>
            .cls-3{fill-rule:evenodd}.cls-3,.cls-4{fill:#fff}
        </style>
    </defs>
    <g id="Page-1" transform="translate(1.25 -8.892)">
        <g id="play_ic_launcher_APP" transform="translate(-1 9)">
            <g id="Group-4">
                <g id="Group" transform="translate(1.739)">
                    <path id="Shape" fill="none" fill-rule="evenodd" stroke="#074089" stroke-linecap="round" d="M27.844 6.751L13.9 0 0 6.751" transform="translate(0 .447)"/>
                    <path id="Shape-2" fill="#074089" fill-rule="evenodd" d="M70.5 40.152v13.276a.318.318 0 0 1-.318.318H51.108a.318.318 0 0 1-.318-.318V40.152l9.832-4.591z" transform="translate(-46.749 -33.042)"/>
                    <path id="Rectangle" d="M83.92 146.581h4.441a.159.159 0 0 1 .159.159v8.884h-4.76v-8.884a.159.159 0 0 1 .16-.159z" class="cls-3" transform="translate(-77.097 -134.92)"/>
                    <path id="Rectangle-Copy-3" d="M0 0H3.094V3.094H0z" class="cls-4" transform="translate(14.754 11.661)"/>
                    <path id="Rectangle-Copy-5" d="M0 0H3.094V3.094H0z" class="cls-4" transform="translate(14.754 15.232)"/>
                    <path id="Rectangle-Copy-4" d="M0 0H3.094V3.094H0z" class="cls-4" transform="translate(18.325 11.661)"/>
                    <path id="Rectangle-Copy-6" d="M0 0H3.094V3.094H0z" class="cls-4" transform="translate(18.325 15.232)"/>
                </g>
                <g id="Group-3" transform="translate(0 16.279)">
                    <g id="Group-2" transform="translate(2.307)">
                        <path id="Path" fill="#fff" fill-rule="evenodd" stroke="#074089" stroke-width="0.5px" d="M15.532 2.444l9.035-2.4a1.208 1.208 0 0 1 1.2 1.984 8.7 8.7 0 0 1-1.619 1.517 40.348 40.348 0 0 1-3.542 2.475q-.9.541-4.559 2.2a7.955 7.955 0 0 1-2.14.627l-2.436.353L0 10.53" transform="rotate(7 .642 10.488)"/>
                        <path id="Path-5" d="M7 59h15.195L7 64.648z" class="cls-3" transform="translate(-6.443 -54.356)"/>
                        <path id="Path-2" fill="#fff" fill-rule="evenodd" stroke="#074089" stroke-linecap="round" stroke-width="0.5px" d="M0 4.33L6.01.477a3.622 3.622 0 0 1 2-.465l6.763.7a1.07 1.07 0 0 1 1.051 1.262v.013a1.8 1.8 0 0 1-1.6 1.211L8.8 3.55" transform="rotate(7 -2.368 6.758)"/>
                    </g>
                    <path id="Rectangle-2" fill="none" fill-rule="evenodd" stroke="#074089" stroke-width="0.5px" d="M1.716 59a.727.727 0 0 0-.716.738v4.345a.727.727 0 0 0 .716.738h1.909a.081.081 0 0 0 .08-.082v-5.657a.081.081 0 0 0-.08-.082z" transform="translate(-1 -54.356)"/>
                </g>
            </g>
        </g>
    </g>
</svg>
