<svg xmlns="http://www.w3.org/2000/svg" width="30.999" height="22.136">
    <defs>
        <style>
            .cls-8{fill:none}.cls-5{stroke:#074089}.cls-3,.cls-5{fill:#fff}.cls-6{stroke:none}
        </style>
    </defs>
    <g id="Group" transform="translate(.668 .556)">
        <path id="Shape" d="M29.663 7.192 14.806 0 0 7.192" style="fill-rule:evenodd;stroke-linecap:round;stroke:#074089;fill:none"/>
        <path id="Shape-2" data-name="Shape" d="M71.788 40.452v14.143a.339.339 0 0 1-.339.339h-20.32a.339.339 0 0 1-.339-.339V40.452l10.474-4.891z" transform="translate(-46.485 -33.354)" style="fill:#074089;fill-rule:evenodd"/>
        <g id="Group_28433" data-name="Group 28433" transform="rotate(20 20.17 18.337)">
            <rect id="Rectangle_3492" data-name="Rectangle 3492" class="cls-3" width="20" height="2" rx=".5" transform="translate(4 15.5)"/>
            <g id="Path_31371" data-name="Path 31371" style="fill:#fff">
                <path class="cls-6" d="M.5 0a.5.5 0 1 1-.5.5.5.5 0 0 1 .5-.5z" transform="translate(5 16)"/>
                <path d="M.5 0a.5.5 0 1 1 0 1 .5.5 0 0 1 0-1z" style="stroke:none;fill:#074089" transform="translate(5 16)"/>
            </g>
            <g id="Ellipse_182" data-name="Ellipse 182" class="cls-5" transform="translate(22 16)">
                <circle class="cls-6" cx=".5" cy=".5" r=".5"/>
                <circle class="cls-8" cx=".5" cy=".5"/>
            </g>
        </g>
        <g id="Group_28434" data-name="Group 28434" transform="rotate(160 11.31 8.191)">
            <rect id="Rectangle_3492-2" data-name="Rectangle 3492" class="cls-3" width="20" height="2" rx=".5"/>
            <g id="Ellipse_181" data-name="Ellipse 181" class="cls-5" transform="translate(1 .5)">
                <circle class="cls-6" cx=".5" cy=".5" r=".5"/>
                <circle class="cls-8" cx=".5" cy=".5" r="0"/>
            </g>
            <g id="Ellipse_182-2" data-name="Ellipse 182" class="cls-5" transform="translate(18 .5)">
                <circle class="cls-6" cx=".5" cy=".5" r=".5"/>
                <circle class="cls-8" cx=".5" cy=".5" r="0"/>
            </g>
        </g>
    </g>
</svg>
