<svg xmlns="http://www.w3.org/2000/svg" width="29.817" height="30.639" viewBox="0 0 29.817 30.639">
    <defs>
        <style>
            .cls-1,.cls-4{fill:#074089}.cls-4{fill-rule:evenodd;stroke:#fff;stroke-width:.5px}
        </style>
    </defs>
    <g id="Page-1" transform="translate(2.25 -2.501)">
        <g id="play_ic_launcher_APP" transform="translate(-2 3.001)">
            <g id="Group-5">
                <g id="Group-4" transform="translate(8.431)">
                    <g id="Group">
                        <path id="Path" d="M12.161 72H5.946C5.011 73.842-.044 76.132 0 81.541c.038 4.495 3.666 5.236 9.039 5.236h.029c5.372 0 9-.741 9.039-5.236.044-5.409-5.007-7.699-5.946-9.541z" class="cls-1" transform="translate(0 -66.323)"/>
                        <path id="Path-2" fill="none" stroke="#184bb8" stroke-width="0.4px" d="M65.545 60.538a.665.665 0 1 0 0 1.329h6.163a.665.665 0 1 0 0-1.329z" transform="translate(-59.751 -56.225)"/>
                        <path id="_" fill="#fff" fill-rule="evenodd" d="M94.343 129.109H93.5a1.759 1.759 0 0 1 .35.855h.658a.158.158 0 0 1 .151.2l-.09.311a.236.236 0 0 1-.227.17h-.479a1.549 1.549 0 0 1-.609 1.158 2.461 2.461 0 0 1-1.478.389l1.911 2.264a.158.158 0 0 1-.12.259h-.46a.394.394 0 0 1-.3-.137l-2.172-2.528v-.381a.158.158 0 0 1 .156-.159h.918a1.543 1.543 0 0 0 .877-.235 1.01 1.01 0 0 0 .428-.629h-2.293a.158.158 0 0 1-.151-.2l.09-.311a.236.236 0 0 1 .227-.17H93q-.207-.821-1.27-.855h-1a.158.158 0 0 1-.151-.2l.093-.311a.236.236 0 0 1 .227-.169h3.61a.158.158 0 0 1 .151.2l-.09.311a.236.236 0 0 1-.227.168z" transform="translate(-83.428 -118.307)"/>
                        <path id="Path-3" d="M62.05 4.708h5.592c.833-2.812 2.163-2.582 1.095-3.6s-4.682-1.7-7.051-.4-.469 1.192.364 4z" class="cls-1" transform="translate(-55.767 -.5)"/>
                    </g>
                </g>
                <g id="Group-3" transform="translate(0 16.36)">
                    <g id="Group-2" transform="translate(2.364)">
                        <path id="Path-4" d="M15.385 2.421l8.949-2.38a1.2 1.2 0 0 1 1.189 1.966 8.617 8.617 0 0 1-1.6 1.5 39.964 39.964 0 0 1-3.513 2.455q-.89.536-4.515 2.18a7.88 7.88 0 0 1-2.119.621l-2.413.351L0 10.43" class="cls-4" transform="rotate(7 .636 10.39)"/>
                        <path id="Path-5" fill="#074089" fill-rule="evenodd" d="M7 59h15.051L7 64.595z" transform="translate(-6.448 -54.4)"/>
                        <path id="Path-5-2" fill="#074089" fill-rule="evenodd" stroke="#fff" stroke-linecap="round" stroke-width="0.5px" d="M0 4.289L5.953.472A3.587 3.587 0 0 1 7.935.011l6.7.7a1.06 1.06 0 0 1 1.041 1.25v.013a1.781 1.781 0 0 1-1.584 1.2l-5.372.345" transform="rotate(7 -2.348 6.692)"/>
                    </g>
                    <path id="Rectangle" d="M1.709 59a.721.721 0 0 0-.709.733v4.317a.721.721 0 0 0 .709.733H3.6a.08.08 0 0 0 .079-.081v-5.621A.08.08 0 0 0 3.6 59z" class="cls-4" transform="translate(-1 -54.4)"/>
                </g>
            </g>
        </g>
    </g>
</svg>
