<svg xmlns="http://www.w3.org/2000/svg" width="58" height="58" viewBox="0 0 58 58">
    <defs>
        <style>
            .cls-4{fill:#fbcdbe}.cls-5{fill:#f9b8a9}
        </style>
    </defs>
    <g id="Group_32237" transform="translate(-22 -498)">
        <circle id="Ellipse_323" cx="29" cy="29" r="29" fill="#fff" transform="translate(22 498)"/>
        <g id="personal" transform="translate(39 515)">
            <path id="Path_33607" fill="#cbe6fe" d="M15.1 297.018l-3.491-.845a.685.685 0 0 0-.161-.019h-4.2a.686.686 0 0 0-.161.019l-3.491.845A4.7 4.7 0 0 0 0 301.595v3.722a.684.684 0 0 0 .684.683H18.02a.684.684 0 0 0 .684-.684v-3.722a4.7 4.7 0 0 0-3.604-4.576z" transform="translate(0 -282.644)"/>
            <path id="Path_33608" fill="#a9c6eb" d="M214.352 301.573v3.722a.685.685 0 0 1-.684.684H205v-9.847a15.614 15.614 0 0 1 2.281.025l3.47.839a4.7 4.7 0 0 1 3.601 4.577z" transform="translate(-195.648 -282.622)"/>
            <path id="Path_33609" d="M159.562 278.32v2.4a.684.684 0 0 1-.684.684h-3.193a.684.684 0 0 1-.684-.684v-2.4a4.786 4.786 0 0 0 4.561 0z" class="cls-4" transform="translate(-147.929 -265.623)"/>
            <path id="Path_33610" d="M207.281 278.32v2.4a.684.684 0 0 1-.684.684H205V278.9a4.765 4.765 0 0 0 2.281-.58z" class="cls-5" transform="translate(-195.648 -265.623)"/>
            <path id="Path_33611" fill="#fcdacb" d="M95 86.756V90.9a5.018 5.018 0 0 0 10.036 0v-4.544z" transform="translate(-90.666 -82.416)"/>
            <path id="Path_33612" d="M210.018 86.36v4.546A5.025 5.025 0 0 1 205 95.924V86.56z" class="cls-4" transform="translate(-195.648 -82.42)"/>
            <path id="Path_33613" d="M160.679 201.174a.684.684 0 0 0-.966.053 1.367 1.367 0 0 1-2.039 0 .684.684 0 1 0-1.019.914 2.736 2.736 0 0 0 4.077 0 .684.684 0 0 0-.053-.967z" class="cls-5" transform="translate(-149.341 -191.83)"/>
            <path id="Path_33614" fill="#f7a38d" d="M207.039 202.141a2.726 2.726 0 0 1-2.039.911v-1.368a1.365 1.365 0 0 0 1.02-.457.684.684 0 0 1 1.019.913z" transform="translate(-195.648 -191.83)"/>
            <path id="Path_33615" fill="#6c3326" d="M99.316 6.207a.684.684 0 0 1-.684-.684V5.36a4.785 4.785 0 0 1-2.72.846h-.228A.684.684 0 0 1 95 5.522V4.1A4.1 4.1 0 0 1 99.1 0h2.007a3.926 3.926 0 0 1 3.926 3.926 2.281 2.281 0 0 1-2.281 2.281z" transform="translate(-90.666)"/>
            <path id="Path_33616" fill="#54281b" d="M210.018 3.926v.014a2.282 2.282 0 0 1-2.281 2.267H205V0h1.093a3.926 3.926 0 0 1 3.925 3.926z" transform="translate(-195.648)"/>
            <path id="Path_33617" fill="#ffcb5a" d="M272.383 198.307a1.223 1.223 0 0 1 .615-1.155.617.617 0 0 0 .32-.286 1.232 1.232 0 0 0-1.067-1.848h-2.893a1.232 1.232 0 0 0-1.067 1.848c.166.288.349.221.623.53a1.323 1.323 0 0 1 .312.907c-.255 1.1-4.051 4.113-4.051 6.871 0 2.481 1.522 4.3 5.63 4.3s5.63-1.825 5.63-4.3c-.001-2.745-3.771-5.734-4.052-6.867z" transform="translate(-253.077 -186.122)"/>
            <path id="Path_33618" fill="#fba61f" d="M392.178 205.175c0 2.48-1.521 4.305-5.63 4.305h-.1v-14.46h1.544a1.231 1.231 0 0 1 1.067 1.848.615.615 0 0 1-.32.286 1.242 1.242 0 0 0-.615 1.155c.282 1.13 4.054 4.121 4.054 6.866z" transform="translate(-368.82 -186.123)"/>
            <path id="Path_33619" fill="#fbedbf" d="M335.84 255.95h-4.106a.684.684 0 0 0 0 1.369h4.106a.684.684 0 1 0 0-1.369z" transform="translate(-315.948 -244.274)"/>
            <path id="Path_33620" fill="#f4da88" d="M389.4 256.634a.684.684 0 0 1-.684.684h-2.266v-1.368h2.263a.685.685 0 0 1 .687.684z" transform="translate(-368.82 -244.274)"/>
            <path id="_" fill="#fff" fill-rule="evenodd" d="M94.219 129.087H93.4a1.7 1.7 0 0 1 .338.827h.637a.152.152 0 0 1 .146.2l-.087.3a.229.229 0 0 1-.22.165h-.464a1.5 1.5 0 0 1-.589 1.12 2.38 2.38 0 0 1-1.429.376l1.848 2.189a.152.152 0 0 1-.116.251h-.445a.381.381 0 0 1-.289-.133l-2.1-2.445v-.369a.152.152 0 0 1 .151-.154h.888a1.493 1.493 0 0 0 .848-.228.977.977 0 0 0 .414-.608h-2.215a.152.152 0 0 1-.146-.2l.087-.3a.229.229 0 0 1 .22-.165h2.047q-.2-.794-1.228-.827h-.97a.152.152 0 0 1-.146-.2l.09-.3a.229.229 0 0 1 .219-.163h3.491a.152.152 0 0 1 .146.2l-.087.3a.229.229 0 0 1-.22.164z" transform="translate(-74.804 -113.515)"/>
        </g>
    </g>
</svg>
