<svg xmlns="http://www.w3.org/2000/svg" width="31.503" height="16.91" viewBox="0 0 31.503 16.91">
    <g>
        <path fill="#c6c6c6" d="M32.58 25.5a3.409 3.409 0 0 0-3.424 3.424 3.51 3.51 0 0 0 .622 1.971l-2.421 3.493a3.355 3.355 0 0 0-3.942.726l-3.665-4.289v-.069a3.424 3.424 0 0 0-6.847 0 2.7 2.7 0 0 0 .1.761l-3.281 4.565a3.523 3.523 0 0 0-1.8-.519 3.471 3.471 0 1 0 2.8 1.487l2.939-4.115a3.411 3.411 0 0 0 5.6-.484l3.389 3.942a3.661 3.661 0 0 0-.173 1.072 3.424 3.424 0 1 0 6.847 0 3.254 3.254 0 0 0-.865-2.248l2.352-3.354a3.373 3.373 0 0 0 1.764.484 3.424 3.424 0 1 0 0-6.847zM7.889 41.061a2.04 2.04 0 1 1 0-4.081 2.067 2.067 0 0 1 2.04 2.04 2.044 2.044 0 0 1-2.04 2.041zm8.438-8.261a2.04 2.04 0 1 1 0-4.081 2.067 2.067 0 0 1 2.04 2.04 2.044 2.044 0 0 1-2.04 2.041zm9.544 6.743a2.044 2.044 0 0 1-2.04-2.04 2.067 2.067 0 0 1 2.04-2.04 2.04 2.04 0 0 1 0 4.081zm6.709-8.576a2.236 2.236 0 0 1-1.245-.415.552.552 0 0 0-.242-.311.262.262 0 0 0-.138-.069 1.931 1.931 0 0 1-.415-1.245 2.044 2.044 0 0 1 2.04-2.04 2.04 2.04 0 1 1 0 4.081z" transform="translate(-4.5 -25.5)"/>
    </g>
</svg>
