<svg xmlns="http://www.w3.org/2000/svg" width="20.088" height="22.283" viewBox="0 0 20.088 22.283">
    <g>
        <g>
            <path fill="#c6c6c6" d="M80.028 36.1c-3 0-4.919 1.587-4.919 4.658 0 4.235 2.843 3.627 2.843 6.924v.852H82.1v-.852c0-3.3 2.843-2.688 2.843-6.924.004-3.073-1.915-4.658-4.915-4.658zm-.6.927a.545.545 0 0 1 .235 1.064 2.867 2.867 0 0 0-1.655 4.555.546.546 0 0 1-.919.59 3.954 3.954 0 0 1 2.338-6.211zm-7.36 9.618a.545.545 0 0 1-.546-.942l1.823-1.052a.545.545 0 0 1 .547.942zm-1.546-4.681a.544.544 0 0 1 0-1.089h2.1a.545.545 0 0 1 0 1.089zm1-4.826a.544.544 0 0 1 .543-.944l1.823 1.052a.545.545 0 0 1-.543.944zm3.278-3.681a.544.544 0 0 1 .942-.546l1.058 1.822a.545.545 0 0 1-.942.547zm4.681-1.546a.544.544 0 0 1 1.089 0v2.1a.545.545 0 0 1-1.089 0zm4.826 1a.544.544 0 0 1 .944.543L84.2 35.278a.544.544 0 0 1-.944-.543zm3.679 3.281a.544.544 0 0 1 .546.942l-1.823 1.052a.545.545 0 0 1-.546-.942zm1.546 4.681a.544.544 0 0 1 0 1.089h-2.1a.544.544 0 0 1 0-1.089zm-1 4.826a.544.544 0 0 1-.543.944l-1.823-1.052a.544.544 0 0 1 .542-.944zm-9.718 6.864h2.426v-.412h-2.425zm2.972 1.094h-3.518a.547.547 0 0 1-.547-.547v-.959h-.306a.547.547 0 0 1-.547-.547c0-1.309-.011-2.616-.011-3.924 0-2.483-2.843-2.5-2.843-6.924 0-3.666 2.418-5.752 6.013-5.752s6.013 2.084 6.013 5.752c0 4.423-2.843 4.442-2.843 6.924 0 1.308-.01 2.615-.01 3.924a.547.547 0 0 1-.547.547h-.306v.959a.547.547 0 0 1-.547.547zm-3.826-4.03v1.432h4.132v-1.432z" transform="translate(-69.984 -31.374) translate(69.984 31.374) translate(-69.984 -31.374)"/>
        </g>
    </g>
</svg>
