<svg xmlns="http://www.w3.org/2000/svg" width="14.875" height="18.096" viewBox="0 0 14.875 18.096">
    <defs>
        <style>
            .cls-2{fill:#fff}
        </style>
    </defs>
    <g id="Product_Guide" transform="translate(-15.156 -7.7)">
        <path id="Path_32925" fill="none" d="M20 13.9a1.425 1.425 0 0 0 1.3 1.027V14.9h10.678v-2.5H21.626a1.623 1.623 0 0 0-1.626.963z" transform="translate(-3.808 -3.695)"/>
        <path id="Path_32926" d="M51.244 13.8h-6.823a.321.321 0 1 0 0 .642h6.823a.321.321 0 1 0 0-.642z" class="cls-2" transform="translate(-22.753 -4.795)"/>
        <path id="Path_32927" d="M38.106 18.9h-4.085a.321.321 0 0 0 0 .642h4.085a.321.321 0 1 0 0-.642z" class="cls-2" transform="translate(-14.578 -8.804)"/>
        <path id="Path_32928" d="M29.154 11.208V7.7H17.646a2.408 2.408 0 0 0-2.481 2.225 4.824 4.824 0 0 0 0 .556v13.176a2.456 2.456 0 0 0 2.635 2.074l12.213.064.021-13.582v-1.005h-.877zm-5.946 12.684a1.262 1.262 0 1 1 1.241-1.262 1.233 1.233 0 0 1-1.241 1.262zm1.626-5.54a2.639 2.639 0 0 0-.727 1.882v.385a.354.354 0 0 1-.364.385H22.63a.369.369 0 0 1-.364-.342l-.021-.364a3.753 3.753 0 0 1 .984-2.738 2.859 2.859 0 0 0 .92-1.754c0-.556-.342-.877-1.027-.877a2.079 2.079 0 0 0-1.241.364.378.378 0 0 1-.556-.171l-.425-1.176.214-.193a4.073 4.073 0 0 1 2.286-.663 2.457 2.457 0 0 1 2.759 2.524 4.11 4.11 0 0 1-1.326 2.738zm3.337-7.123l-10.671.022a1.447 1.447 0 0 1-1.3-1.027v-.535a1.559 1.559 0 0 1 1.626-.963H28.17z" class="cls-2"/>
    </g>
</svg>
