<svg xmlns="http://www.w3.org/2000/svg" id="Group_31143" width="15.794" height="20.044" viewBox="0 0 15.794 20.044">
    <defs>
        <clipPath id="clip-path">
            <path id="Path_32931" d="M536.044-409.551a10.147 10.147 0 0 0-6.151 2.823l-.393.388 1.139.015 1.139.01.491-.319a8.681 8.681 0 0 1 2.941-1.213 6.593 6.593 0 0 1 1.679-.113 6.594 6.594 0 0 1 1.679.113 8.444 8.444 0 0 1 4.055 2.1l.491.466.992-.01.992-.015-.26-.344a10.93 10.93 0 0 0-.781-.879 10.032 10.032 0 0 0-8.013-3.022z" class="cls-1" transform="translate(-529.5 409.584)"/>
        </clipPath>
        <clipPath id="clip-path-2">
            <path id="Path_32933" d="M584.179-305.987c-.015.064-.02.5-.015.972l.015.859 2.528.029c2.838.029 2.779.025 3.142.388.339.339.407.609.4 1.65a2.587 2.587 0 0 1-.093 1.055 1.254 1.254 0 0 1-.633.628c-.226.108-.285.113-1.694.108-.805 0-1.473.015-1.487.034s1.2 1.561 2.69 3.427 2.96 3.721 3.27 4.114c.466.594.579.712.663.687a9.32 9.32 0 0 0 1.4-.781 10.544 10.544 0 0 0 2.435-2.258l.26-.344-1.011-.015-1.007-.01-.407.388a3.97 3.97 0 0 1-1.1.84 8.026 8.026 0 0 1-.938-1.114c-.471-.614-.962-1.252-1.09-1.414-.57-.722-.815-1.031-1.056-1.321-.28-.334-.358-.545-.25-.673a1.316 1.316 0 0 1 .4-.191 2.484 2.484 0 0 0 1.8-2.278 12.134 12.134 0 0 0-.088-2.828 2.661 2.661 0 0 0-1.758-1.875c-.295-.128-.8-.152-3.5-.172l-2.857-.02z" class="cls-1" transform="translate(-584.162 306.1)"/>
        </clipPath>
        <clipPath id="clip-path-3">
            <path id="Path_32935" d="M525.966-71.529a9.817 9.817 0 0 0 2.725 1.959 9.989 9.989 0 0 0 3.633.982 4.523 4.523 0 0 0 1.276.025 11.417 11.417 0 0 0 1.237-.167s-.157-.339-.368-.732l-.378-.727-1.1-.015a6.917 6.917 0 0 1-1.6-.123 8.663 8.663 0 0 1-3.059-1.3l-.56-.378H525.5z" class="cls-1" transform="translate(-525.5 72)"/>
        </clipPath>
        <style>
            .cls-1,.cls-3{fill:#3e5ac6}.cls-1{clip-rule:evenodd}
        </style>
    </defs>
    <g id="Group_31140" clip-path="url(#clip-path)" transform="translate(.196)">
        <path id="Path_32930" d="M524.5-409.793h16.088v-4.791H524.5z" class="cls-3" transform="translate(-524.745 414.339)"/>
    </g>
    <g id="Group_31141" clip-path="url(#clip-path-2)" transform="translate(2.88 5.08)">
        <path id="Path_32932" d="M579.162-296.541h13.39V-311.1h-13.39z" class="cls-3" transform="translate(-579.408 310.855)"/>
    </g>
    <g id="Group_31142" clip-path="url(#clip-path-3)" transform="translate(0 16.573)">
        <path id="Path_32934" d="M520.5-73.038h9.829V-77H520.5z" class="cls-3" transform="translate(-520.745 76.755)"/>
    </g>
</svg>
