<svg xmlns="http://www.w3.org/2000/svg" width="24" height="24" viewBox="0 0 24 24">
    <path fill="#fff" d="M0 0H24V24H0z"/>
    <g>
        <path fill="#555" d="M.238 1.217L4.167 4.8.238 8.383a.674.674 0 0 0-.226.5.687.687 0 0 0 .214.507.75.75 0 0 0 .524.21h.012a.761.761 0 0 0 .524-.2l4.488-4.09A.7.7 0 0 0 6 4.8a.68.68 0 0 0-.226-.507L1.274.2A.793.793 0 0 0 .75 0a.779.779 0 0 0-.536.214A.687.687 0 0 0 0 .721a.629.629 0 0 0 .238.496z" transform="rotate(-90 12.604 3.804) rotate(90 4.8 4.8)"/>
    </g>
</svg>
